<?xml version="1.0" standalone="no"?>
<!DOCTYPE svg PUBLIC "-//W3C//DTD SVG 1.1//EN" "http://www.w3.org/Graphics/SVG/1.1/DTD/svg11.dtd" >
<svg xmlns="http://www.w3.org/2000/svg" xmlns:xlink="http://www.w3.org/1999/xlink" version="1.1">
<metadata></metadata>
<defs>
<font id="liu_jian_mao_caoregular" horiz-adv-x="790" >
<font-face units-per-em="2048" ascent="1802" descent="-246" />
<missing-glyph horiz-adv-x="849" />
<glyph horiz-adv-x="0" />
<glyph horiz-adv-x="682" />
<glyph unicode=" "  horiz-adv-x="849" />
<glyph unicode="&#x09;" horiz-adv-x="849" />
<glyph unicode="&#xa0;" horiz-adv-x="849" />
<glyph unicode="!" horiz-adv-x="634" d="M102.5 -43q12.5 25 33 36t42 7t30.5 -20.5t0 -45t-50 -71.5q-6 -6 -16.5 -4t-18.5 8t-14.5 14t-8.5 10q-10 41 2.5 66zM56.5 528.5q-15.5 114.5 -1 242.5t55.5 260t93 252t111.5 220.5t114.5 164t97 85t61 -17.5q4 -4 4 -14.5t-4 -14.5q-96 -111 -182.5 -243 t-148.5 -276.5t-90 -298t-9 -304.5q0 -14 18.5 -54.5t32.5 -86.5t14 -88t-35 -60q-23 -8 -36 4t-23 25q-57 90 -72.5 204.5z" />
<glyph unicode="&#x22;" horiz-adv-x="518" d="M73 852q-7 47 -10.5 105.5t0 119t12.5 110.5t25.5 81.5t42.5 31.5q33 0 48.5 -17t18.5 -43t-1 -59.5t-11.5 -66.5t-15.5 -59.5t-8 -40.5q-2 -14 -7 -50t-9 -78t-8.5 -79t-6.5 -51q-16 -8 -34.5 2t-22.5 26q-6 21 -13 68zM354 915.5q-6 55.5 -9 112.5t-3 113.5t2 103.5 q8 18 24.5 26.5t35 8.5t35 -8t22.5 -27q0 -12 3 -48t5 -86t0 -105.5t-9 -102.5t-20.5 -81t-36.5 -38q-6 0 -17 11.5t-13 17.5q-13 47 -19 102.5z" />
<glyph unicode="#" horiz-adv-x="1353" d="M559 -22.5q8 40.5 17.5 87t17.5 87.5t10 57q2 4 2 14t-2 13q-6 2 -42 -1.5t-72.5 -12.5t-68.5 -20.5t-32 -23.5v-227h-74l-55 201q-4 8 -29.5 1.5t-58.5 -17.5t-65.5 -17t-49.5 4q-29 18 -23.5 35.5t28 35t59.5 37t70.5 41t61.5 48t36 61.5q0 10 5 31.5t8 47t8 48t5 33.5 h-258l-28 43q18 31 47.5 41t63.5 12t68 1t65.5 2t58 15.5t41.5 44.5q6 6 16 30t25.5 56.5t32 70.5t29.5 69.5t24.5 55.5t17.5 34q20 35 43 76t49.5 76.5t61.5 64.5t78 43q18 6 33.5 -3t21.5 -26q-111 -117 -187.5 -257t-128.5 -290q16 -2 61.5 -2t93.5 3.5t88 9.5t46 16 l258 490q2 4 13.5 16t24.5 25.5t27.5 26.5t20.5 15q4 4 15.5 4.5t15.5 -4.5v-83l-233 -433l-27 -28q33 -6 64.5 0t63.5 14t63.5 13t68.5 1q12 -37 -3 -54t-48 -27.5t-78 -22.5t-91 -41t-88 -82t-67 -145q-2 -4 -2 -15.5t2 -15.5q63 -8 128 3t130.5 25.5t130 27t129.5 1.5 v-86l-546 -84q-12 -2 -24.5 -37.5t-25 -88t-27 -111t-28.5 -101.5t-31.5 -65.5t-38.5 -1.5q-4 2 -8 10l-8 16l-8 19q-4 10 -4 14q4 15 12 55.5zM508 319.5q70 16.5 123 52.5t79.5 94t10.5 148q-90 -8 -147.5 -18t-95.5 -35.5t-60.5 -75t-44.5 -133.5v-57q65 8 135 24.5z" />
<glyph unicode="$" horiz-adv-x="1122" d="M547 -93q-10 11 -15 15q-2 39 -2 84t-4 90t-15 89t-38 83q-20 35 -55 60.5t-73 49t-75 48.5t-66.5 53.5t-50 67.5t-24.5 94q-4 39 -5 100.5t-1 122t1 104.5t5 48l29 28q-88 86 -108.5 169t11 145.5t110.5 96.5t187 22v229q37 12 56.5 1t30 -39t12.5 -63.5t3 -71.5 t4 -67.5t9 -48.5q12 -18 34.5 -43.5t51.5 -56.5t53.5 -64.5t42 -68.5t17.5 -70t-25 -70q-27 70 -71 140.5t-103 115.5q-4 -92 6 -201.5t25 -199.5q2 -2 12 -13.5t16 -15.5q104 -68 213 -136t192 -136t125 -129t16.5 -110.5t-133 -81t-327.5 -41.5q0 -14 6.5 -53.5 t12.5 -86.5t11 -95t-2 -81t-26.5 -44t-58.5 15q-4 5 -14 16zM604 367.5q12 -11.5 14 -15.5q178 -14 264.5 -0.5t104 47t-20.5 80.5t-108 100.5t-157 106.5t-169 98q-6 -51 -8 -103t3 -104.5t19.5 -103.5t41.5 -92q4 -2 16 -13.5zM427 416.5q26 -15.5 46 -4.5q2 6 2 27.5 t-2 29.5q-2 18 -10 66.5t-16.5 104.5t-17.5 105.5t-13 67.5q-43 51 -94.5 94t-106.5 80q-41 -72 -43 -152.5t24.5 -155.5t77 -138.5t113.5 -102.5q14 -6 40 -21.5zM241.5 1079.5q18.5 -16.5 41 -36t44 -35t31.5 -21.5q2 -4 13.5 -4t15.5 4q8 94 0 186.5t-29 186.5 q-45 33 -81.5 35t-65.5 -14.5t-44 -48.5t-16 -71.5t13 -81.5t51 -79q8 -4 26.5 -20.5zM174 1013.5q0 -14.5 14 -14.5q8 0 8.5 14.5t-8.5 14.5q-14 0 -14 -14.5z" />
<glyph unicode="%" horiz-adv-x="1742" d="M558 54.5q-40 97.5 -43 201.5t23.5 213t65.5 201q-4 2 -35.5 -17.5t-72.5 -46t-77 -51.5t-46 -29q-31 -12 -72 -18t-84 -6t-82 11t-63.5 32.5t-31.5 59.5t17 95q2 2 14.5 15.5t28 27t27.5 26.5t16 15l7 13q6 6 10 15t8 18.5t6 11.5q66 8 133.5 -9.5t133 -40t121.5 -36 t100 -0.5q12 16 40.5 49t64.5 73t78 84t79 82.5t67.5 70.5t44.5 44q86 78 180.5 119t175.5 51t142 -8t79.5 -58t-8 -100.5t-121.5 -134.5t-267.5 -158t-438.5 -170q-41 -16 -73.5 -71.5t-52 -133t-27 -166.5t3 -167t40 -136.5t81.5 -74.5q39 -14 91 -12t103 16t98.5 34.5 t79.5 47.5q68 49 90.5 93t22.5 83t-12.5 76t-14.5 71.5t14.5 68.5t73.5 69q59 35 134 41t138.5 -16.5t96.5 -80t4 -147.5q-4 -27 -28.5 -44.5t-57.5 -31.5t-68.5 -24.5t-68.5 -18.5t-58.5 -14t-33.5 -10q-2 -2 -13 -15l-18 -28q-8 -14 -16.5 -27.5t-10.5 -15.5 q-45 -43 -120.5 -94.5t-161.5 -83t-172 -38t-150 40.5q-94 66 -134 163.5zM856 831.5q-4 -8.5 -9 -17.5t-7 -18.5t-2 -11.5h25.5h29.5q18 4 56 17.5t80 27t77 25.5t47 16q166 76 252 149t104.5 125t-24.5 73.5t-131 -7t-214 -115.5t-276 -253q-4 -2 -8 -10.5zM1455 266 q46 -2 75 21.5t38 62.5t-9.5 66.5t-67.5 32t-137 -36.5q-35 -18 -31 -39t31 -49q55 -56 101 -58zM171 652.5q-1 -13.5 -1 -27t1 -25.5t3 -16q82 -14 143.5 1t114.5 85q-8 2 -46 12t-83 17.5t-85 3t-44 -32.5q-2 -4 -3 -17.5zM400.5 766q-5.5 2 -11.5 2t-11 -2t-5 -10 q4 -12 15 -12.5t15 12.5q3 8 -2.5 10z" />
<glyph unicode="&#x26;" horiz-adv-x="1337" d="M56.5 -39q-19.5 39 -15.5 81t26.5 85t56.5 81t74 67.5t74 48.5q16 10 61.5 30.5t96.5 43t96 43t62 28.5q0 31 -1 103.5t-1 155.5t1 155.5t1 103.5q0 14 5 39t9 48.5t9 41t7 17.5h87q-2 -53 -5.5 -130t-2.5 -162t9.5 -168t26.5 -147q4 -2 41 3.5t90.5 16.5t113.5 27.5 t108.5 37t80 43t25.5 49t-59.5 54t-167.5 56.5q-14 4 -21.5 14.5t-10.5 23.5t-2 26.5t3 21.5q35 8 88 -2t108.5 -30.5t104.5 -50.5t73.5 -59.5t14.5 -60t-72 -55.5l-518 -203q-6 -4 -17 -37.5t-26.5 -89t-40 -122t-57.5 -129t-77 -114.5t-101.5 -81t-128 -26t-156.5 52 q-53 31 -72.5 70zM139 -10l37 -35q8 -4 12 -4q100 -29 182.5 3t133.5 96.5t73.5 152.5t10.5 178q-23 8 -70 -8.5t-104.5 -48t-116.5 -73.5t-102 -86t-64.5 -85t-1.5 -72q4 -6 10 -18z" />
<glyph unicode="'" horiz-adv-x="260" d="M55 1180.5q-8 56.5 -11 126t0 142.5t17.5 129t46 87t80.5 14q0 -10 1 -35.5t1 -53t-1 -52.5t-1 -35q-4 -27 -9 -67.5t-12 -84.5t-12 -88t-10.5 -79t-9.5 -58.5t-6 -25.5l-29 -27l-28 27q-9 24 -17 80.5z" />
<glyph unicode="(" horiz-adv-x="675" d="M175 86q-91 96 -124 213t-18.5 244t60.5 256t112.5 250.5t138.5 226.5q25 31 43.5 52.5t36.5 28.5t41.5 2t52.5 -28q-55 -76 -121.5 -174t-125 -208.5t-99.5 -226.5t-45 -227.5t38 -215t150 -185.5q8 -6 39 -22.5t72 -37t84 -45t72.5 -49t39 -44t-17.5 -33.5q-8 2 -33 10 l-53 16q-29 10 -53.5 19.5t-32.5 13.5q-166 68 -257 164z" />
<glyph unicode=")" horiz-adv-x="778" d="M40 -76.5q11 21.5 17 27.5q184 133 315.5 267t195 291t54 343t-103.5 424l-16 31q-12 25 -27.5 54.5t-28.5 51.5l-14 35q-2 0 -2 12.5t2 16.5q20 8 36.5 6t31 -12.5t27 -25.5t20.5 -28q117 -193 153.5 -383t1 -369.5t-141 -345t-271.5 -311.5q-2 -2 -24.5 -17.5 t-49.5 -33.5t-55.5 -36.5t-42.5 -29.5q-27 -18 -45 -24q-16 -6 -29.5 -3t-13.5 27q0 11 11 32.5z" />
<glyph unicode="*" horiz-adv-x="849" d="M114 -88q-1 14 -1 28.5t1 24.5t3 15l143 198v31q-4 0 -34.5 -1t-69.5 3t-77 16.5t-50 40.5q-6 10 -1 25.5t17 29t23.5 21.5t17.5 8h229q2 0 5.5 10.5t9.5 24.5t9 28.5t5 22.5q2 14 7 42t9.5 60.5t8.5 61.5t4 39q25 18 43 27q18 6 31.5 3t13.5 -30v-229q0 -29 20.5 -33 t51 5t68.5 25.5t78 32t72.5 24.5t53.5 3q10 -14 3 -28.5t-20.5 -28t-25.5 -23.5l-12 -8q-14 -10 -51 -34.5t-78 -51.5t-78 -51.5t-54 -34.5q-8 -35 -0.5 -67.5t19.5 -62.5t23.5 -56.5t11.5 -50t-17.5 -44t-64.5 -37.5l-88 175q-16 35 -38 20.5t-46.5 -50.5t-50 -81t-49 -75 t-43 -34t-29.5 45q-2 7 -3 21z" />
<glyph unicode="+" horiz-adv-x="1384" d="M553 221q14 82 8 160q-53 14 -99 5t-92 -29.5t-91.5 -46t-89.5 -46t-88 -31t-89 2.5q-10 18 2.5 38.5t34 36t46 27.5t34.5 14q16 6 50 15.5t77 20.5t89 23.5t89 25t77 20.5t50 12q2 20 4 62t7.5 89.5t16.5 90.5t29 73q2 6 13.5 17.5t15.5 11.5q8 0 17.5 -4t18.5 -7 t15.5 -9.5t6.5 -8.5v-286q16 -2 74.5 5t133 16t154.5 16.5t144.5 4.5t102.5 -18.5t23 -52.5q0 -4 -10 -15.5t-16 -15.5q-14 0 -52 1t-80 1t-78 -1t-50 -1l-97.5 -5t-113 -8t-94 -8t-41.5 -5l-29 -31l-4 -25q-2 -23 -8.5 -60.5t-10.5 -84.5l-16 -94q-4 -47 -10 -91t-9 -75 q0 -20 -2 -41t-10 -35t-25.5 -17t-48.5 5q-2 12 -3 40.5t-1 60.5t1 61.5t3 40.5q7 73 21 155z" />
<glyph unicode="," horiz-adv-x="489" d="M-26 -513q1 13 7.5 22.5t16.5 16.5t16 17q51 66 89 119t70 107.5t55.5 116t43.5 147.5q12 43 5 82t-18 72.5t-18.5 66.5t3.5 65q6 20 23.5 26.5t34.5 4.5t33.5 -11t24.5 -20q29 -31 33 -89t-9 -132.5t-44 -161t-67.5 -166t-78.5 -151.5t-81 -117t-72 -60t-53 15 q-15 17 -14 30z" />
<glyph unicode="-" d="M12 348q4 10 14.5 17.5t22.5 10.5t23 5q20 4 68 13t106.5 21.5t125 25t127 23.5t108.5 19.5t69 14.5q39 6 49 -7.5t4 -35t-21.5 -43t-31.5 -31.5q-47 6 -112.5 -2t-134.5 -22.5t-138.5 -31t-127 -24.5t-98 -4t-53.5 27q-4 14 0 24z" />
<glyph unicode="." horiz-adv-x="415" d="M117 -47q6 33 26.5 60.5t49 49t59.5 23.5t59.5 -14.5t44.5 -63.5q12 -29 3 -56.5t-31.5 -48t-51 -33.5t-57.5 -17.5t-54.5 5t-39.5 33.5q-14 29 -8 62z" />
<glyph unicode="/" horiz-adv-x="849" d="M10 -64.5q0 11.5 2 15.5l17 61q12 43 25.5 97.5t28.5 115t29.5 113.5t27 96t18.5 64q31 92 70.5 188t89 188.5t103.5 178.5t111 164q16 23 47 57.5t63 66t58.5 54t32.5 22.5h58v-57q-14 -14 -51.5 -55t-79.5 -87.5t-78.5 -87t-49.5 -57.5q-6 -6 -14 -17.5t-17 -25.5 t-17.5 -26.5t-10.5 -16.5q-10 -29 -35.5 -87t-57.5 -132t-65.5 -155t-65.5 -155.5t-55.5 -133t-35.5 -88.5q-18 -41 -17.5 -94.5t-0.5 -103.5t-12 -97t-56 -78q-4 2 -13.5 10t-18.5 17.5t-17.5 18.5t-10.5 13q-2 2 -2 13.5z" />
<glyph unicode="0" horiz-adv-x="935" d="M135.5 -74.5q-18.5 21.5 -34 45t-25.5 50t-19 45.5q-10 55 -8 137t18.5 178t44 199.5t69.5 201t95.5 180t117 137t138 73t160.5 -12.5q72 -27 109 -81t63 -122q0 -18 1 -67t1 -104.5t-1 -103.5t-1 -67q-4 -45 -35.5 -128t-85 -177t-122 -187t-145.5 -158.5t-154.5 -90.5 t-147.5 18q-20 13 -38.5 34.5zM320.5 -22.5q54.5 12.5 111.5 59.5q115 100 189.5 208.5t114.5 217t49.5 210t-4 184.5t-45 141.5t-76 79t-96.5 2t-103 -92.5q-25 -37 -58.5 -79t-65.5 -84t-61.5 -89t-44.5 -94q-8 -23 -25.5 -73t-34.5 -111.5t-30.5 -129t-14.5 -129 t15.5 -111.5t61.5 -79q63 -43 117.5 -30.5z" />
<glyph unicode="1" horiz-adv-x="524" d="M209 257q4 161 13 315.5t25.5 312t49.5 342.5q-14 -18 -36.5 -38t-50.5 -35t-57.5 -19.5t-58.5 6.5q-2 8 16.5 37.5t50.5 70.5t71.5 89t80.5 90t76 74t58.5 42t31.5 -8t-8 -76q-6 -14 -18.5 -52t-25.5 -80t-25.5 -78t-20.5 -52q-2 -29 -9 -92.5t-16.5 -143t-18.5 -166.5 t-17.5 -167t-14.5 -143.5t-8 -92.5q-6 -68 -6 -83t1 -10t3 21.5t2 14.5q-2 -33 -5 -91.5t-4 -124t-3 -123.5t-4 -91q0 -16 -7.5 -30.5t-20.5 -25t-28.5 -11.5t-29.5 9v58q10 190 14 351z" />
<glyph unicode="2" horiz-adv-x="1181" d="M84 135q29 74 76 134.5t111.5 103.5t144.5 65q39 74 75.5 155t63.5 165t36 171t-3 171l-230 -201h-55v57l258 261q31 31 58.5 29.5t48 -20t30 -46t7.5 -47.5t-7.5 -54.5t-8.5 -66t-8 -56t-5 -26.5q-4 -27 -24.5 -87.5t-44 -130t-44 -131t-31.5 -83.5q-25 -27 -15.5 -43.5 t34.5 -24.5q27 -12 67 -18q37 -4 86.5 2t101.5 18t105.5 25.5t97.5 24t76.5 15.5t49.5 1q10 -4 22 -15.5t8 -13.5l-57 -88q-4 -4 -38 -17.5t-80 -26.5t-93 -25.5t-76 -16.5q-20 -4 -74.5 -5t-115 -1t-112.5 1t-75 5q-10 -16 -37.5 -58t-59.5 -87.5t-61.5 -86t-41.5 -55.5 q-12 -18 -33 -43.5t-46.5 -48t-58 -33t-63.5 7.5q0 6 -1 18.5t-1 27t1 25.5t1 18q12 81 41 155zM119 -22.5q0 -14.5 10 -14.5t10 14.5t-10 14.5t-10 -14.5zM158 66.5v-29.5h30l170 258h-28q-8 0 -35 -22.5t-54.5 -53.5t-52 -64.5t-30.5 -60.5v-27.5z" />
<glyph unicode="3" horiz-adv-x="837" d="M75.5 -32q-26.5 44 -38.5 94.5t-12 102.5t4 103q14 8 30.5 -14.5t36 -61t43 -88t54 -89.5t71.5 -63.5t90 -14t110.5 58.5t139.5 156q106 141 114.5 248.5t-52 162.5t-176 48t-259.5 -85q-37 0 -22.5 27t55.5 70t99.5 94t111.5 103t91 96.5t38 70.5v29q-23 8 -56.5 -4.5 t-70.5 -33t-72.5 -43t-68.5 -35.5t-60.5 -9t-44.5 39q-8 12 -0.5 25.5t17.5 26.5t22 22l19 12q20 6 73.5 23.5t114 36t112.5 33.5t73 24h29.5h29.5q12 -49 -5.5 -101.5t-48 -103.5t-64.5 -97.5t-56 -74.5q20 8 47 -6.5t41 -22.5q76 -61 108.5 -140t29.5 -162t-33.5 -167 t-83 -157.5t-117 -132t-133 -89.5t-137 -31t-126.5 43q-41 33 -67.5 77z" />
<glyph unicode="4" horiz-adv-x="1021" d="M611 -9q5 32 10.5 72.5t11.5 88t13 88.5t10 71.5t6 40.5q0 6 1 18.5t1 26t-1 25.5t-1 16q-18 8 -67.5 25.5t-105 36t-104.5 35t-70 20.5q-31 8 -59.5 -13.5t-54 -56t-49 -74.5t-44 -66t-41 -28t-38.5 35q8 23 22.5 68t34.5 102.5t43 118.5t42 118.5t35.5 102.5t24.5 68 q4 14 16.5 36.5t29 38t35 14.5t32.5 -32q-4 -14 -16.5 -46t-26.5 -68.5t-25.5 -70.5t-15.5 -46q-4 -8 -4 -28.5t4 -27.5q12 -2 50 -16t84 -33.5t98.5 -42t95.5 -37t71.5 -20.5t32.5 4l201 776q4 23 20.5 28t33 -1t27.5 -21.5t5 -36.5l-141 -630v-86l20 10t34.5 17.5t34 17.5 t23.5 12h29q-43 -33 -76 -60.5t-57.5 -56t-42 -62.5t-25.5 -81q-4 -18 -11 -56t-15.5 -86.5t-17.5 -101.5t-17 -101t-15.5 -87t-9.5 -58q-6 -4 -16 -10t-23.5 -11t-25 -7t-23.5 0v18.5v25.5v25.5v18.5q2 8 7 40z" />
<glyph unicode="5" horiz-adv-x="921" d="M85 -12.5q-24 59.5 -30 127t2.5 134t23.5 116t36.5 72t40.5 1.5q2 -14 -4.5 -61t-10.5 -109.5t-4 -128t14.5 -115t49.5 -73t100 -0.5q94 33 125 84t18.5 114.5t-57.5 132t-96 135t-98.5 125t-65.5 99.5q-39 84 -31 143.5t41 98.5t80 59.5t87 23.5t65.5 -6.5t15.5 -29.5 l463 143q31 8 42 -6t8 -36.5t-16.5 -44t-33.5 -30.5l-520 -172q-27 -8 -49.5 14.5t-36.5 43.5q-29 -6 -34 -34t-1 -60.5t16.5 -63.5t18.5 -43q10 -12 30.5 -39t46 -60.5t54 -70.5t53.5 -73t44.5 -63.5t31.5 -39.5q35 -51 39 -112.5t-15.5 -120t-59.5 -107.5t-91 -77 t-107.5 -28t-111.5 41q-49 37 -73 96.5z" />
<glyph unicode="6" horiz-adv-x="763" d="M84 -60.5q-27 35.5 -39 88t-13 111t5 115.5t16 106.5t19 77.5q2 14 16 59.5t32.5 105t41 129t43 135t39 119.5t28.5 87q4 10 10.5 26.5t15.5 28t24.5 14.5t35.5 -9v-89l-200 -663v-315q0 -16 18.5 -38t40 -36.5t38.5 -13t17 29.5q6 20 21.5 74.5t34 113t35 111.5t24.5 74 q2 12 24.5 45t53.5 72t68.5 75.5t70.5 56t60.5 12.5t40.5 -58q12 -82 2.5 -171t-40 -174t-76.5 -158t-110.5 -124t-146.5 -69.5t-176 3.5q-47 13 -74 48.5zM384 100.5q-1 -16.5 -1 -35t1 -35t3 -22.5q57 20 110.5 77.5t90.5 129.5t53 147.5t6 135.5h-86q-2 0 -12 -16.5 t-25.5 -40t-29 -48t-21.5 -41.5q-6 -14 -20.5 -49t-26.5 -70.5t-24.5 -66.5t-14.5 -43q-2 -6 -3 -22.5z" />
<glyph unicode="7" horiz-adv-x="892" d="M203 899q-2 0 -20.5 -23.5t-42 -53t-49 -56.5t-44 -33t-26 16.5t7.5 92.5q2 16 17 40.5t33.5 46t37 38t26.5 20.5l695 156v-99q-14 -35 -34 -109.5t-46.5 -167.5t-55 -196.5t-54 -197.5t-45 -169t-28.5 -110q-4 -10 -8 -38.5t-8 -61.5t-8 -61.5t-4 -41.5q-12 -8 -38 -21 t-48 -7v117l284 1071z" />
<glyph unicode="8" horiz-adv-x="978" d="M50 -34q-3 50 7.5 102.5t29.5 99.5t30 68q6 18 31.5 64t52 97.5t52.5 95.5t36 62q16 63 -0.5 128t-40 133.5t-41 140t-4.5 143.5q10 8 29.5 18t40 18.5t41 14.5t30.5 8q27 2 66 3t75.5 1t62 -1t27.5 -3l87 -115q4 -2 -8.5 -14t-18.5 -14q-4 -2 -15.5 -2t-15.5 2 q-2 0 -15.5 9t-27.5 19.5t-26.5 19.5t-16.5 9q-12 2 -39.5 3t-60.5 1t-61.5 -1t-39.5 -3q-27 -12 -29.5 -40.5t2.5 -61.5t14 -60.5t13 -40.5l15.5 -46.5t17.5 -56.5t15 -48l8 -19h30l461 433q35 31 53.5 28.5t24.5 -23t-1 -48t-21 -46.5q-14 -20 -40 -39.5t-56.5 -37 t-58.5 -35t-44 -33.5q-23 -18 -53.5 -48t-62.5 -59.5t-62.5 -61.5t-55 -57.5t-40 -41t-15.5 -17.5v-491q0 -49 -37 -104.5t-90 -95.5t-112.5 -53t-106.5 21q-33 25 -36 75zM185.5 -29q31.5 0 67.5 17.5t63.5 48.5t27.5 57v318l-27 57q-33 -43 -68.5 -99.5t-63 -119t-41 -125 t-1.5 -117.5q11 -37 42.5 -37z" />
<glyph unicode="9" horiz-adv-x="675" d="M444 987q-33 -25 -76.5 -51.5t-94 -46t-101.5 -26.5t-100 7q-31 66 -27 140.5t38 141.5t89 117t122.5 69.5t143.5 0t150 -91.5q18 -18 33.5 -21t24.5 -7.5t9 -15.5t-8 -44l-317 -1208q18 -29 8 -47.5t-31.5 -28.5t-48.5 -12t-43 0v59l229 862v203zM157 1049.5 q-1 -15.5 -1 -34t1 -34.5t1 -25q33 -8 74.5 -1.5t84.5 24.5t80 47t61.5 64.5t30 75.5t-15.5 81q-41 31 -94 24t-98 -35t-80 -73t-43 -90q0 -8 -1 -23.5z" />
<glyph unicode=":" horiz-adv-x="446" d="M163 190.5q11 40.5 31.5 75.5t49 59.5t56.5 33t51.5 -2t35.5 -47.5q10 -27 -2 -61.5t-36.5 -64t-55.5 -55.5t-59.5 -39t-51 -10t-24.5 27q-6 44 5 84.5zM25.5 792.5q-5.5 26.5 12 49t51.5 40t74 29t76.5 16.5t60.5 -2t27 -23.5t-24 -43.5l-145 -145q0 -2 -11.5 -2 t-17.5 2q-6 4 -28.5 13t-28.5 15q-41 25 -46.5 51.5z" />
<glyph unicode=";" horiz-adv-x="360" d="M-8 -426q74 100 120 207.5t63.5 227.5t-3.5 259q8 27 36 31t50 -4q31 -82 32 -166t-19.5 -166t-58.5 -160.5t-84 -153.5t-95 -143.5t-90 -130.5q-23 -31 -59 -30.5t-58 30.5q92 99 166 199zM95.5 664.5q27.5 19.5 62.5 27.5t69.5 9t59.5 -1q18 -45 -1.5 -86t-57.5 -71.5 t-86 -44t-85 -0.5q-2 6 -3 21.5t-1 34.5t1 35.5t3 24.5q11 31 38.5 50.5zM160 612.5q0 -14.5 12 -14.5t12 14.5t-12 14.5t-12 -14.5z" />
<glyph unicode="&#x3c;" horiz-adv-x="1337" d="M507 153.5q-73 14.5 -154 21.5t-156.5 9t-139.5 -6q-43 23 -33.5 42.5t39 34.5t64.5 25.5t47 14.5q20 10 66.5 37.5t102.5 61.5t118.5 72t119 71.5t102.5 61.5t67 42q18 12 43.5 38t54.5 48.5t62.5 33.5t68.5 -5q10 -18 -12.5 -46t-67.5 -63t-107.5 -73.5t-127 -76.5 t-128 -75t-109.5 -67.5t-69.5 -53t-13.5 -33.5q109 -10 229.5 -41.5t241.5 -76t229.5 -89.5t192.5 -81q20 -8 25.5 -27t0 -36t-19.5 -25.5t-35 -0.5q-18 10 -63 30t-101.5 44.5t-120 49t-119.5 47t-102.5 39t-66.5 22.5q-55 16 -128 30.5z" />
<glyph unicode="=" horiz-adv-x="1554" d="M96.5 179.5q22.5 17.5 53 29.5t63.5 17t43 5l1067 144h199q12 -18 11 -34.5t-11.5 -28t-23.5 -18.5t-32 -7h-374l-920 -172q-31 -6 -52.5 -3t-35.5 29q-10 21 12.5 38.5zM70.5 504q11.5 12 13.5 14q129 45 280.5 81t307 60.5t309.5 32.5t285 -2q6 -23 2 -50.5t-33 -37.5 q-127 16 -271.5 7t-291 -31.5t-282.5 -55.5t-249 -63h-84q-2 4 -2 15t2 13q2 5 13.5 17z" />
<glyph unicode="&#x3e;" horiz-adv-x="1296" d="M197 -81.5q2 24.5 9 50t21.5 41t32.5 -1.5q20 16 62.5 48t95.5 73t112.5 84t113.5 83t97 70.5t64 45.5q14 6 47 22l68 37q37 18 69 33q33 14 47 22q-109 18 -235 31q-129 14 -264.5 37.5t-266.5 60.5t-241 101q-10 20 -2 32.5t24.5 19.5t34.5 8t31 -3q6 -2 23.5 -9 t35 -16.5t32.5 -17.5t23 -14l1006 -201q8 -2 8 -13.5t-8 -15.5q-49 -51 -132 -96t-178.5 -89t-195.5 -92t-187 -105.5t-147.5 -125t-81.5 -155.5l-112 28q-8 3 -6 27.5z" />
<glyph unicode="?" horiz-adv-x="1064" d="M557 -32q8 34 36 50.5t63.5 10.5t64.5 -49q14 -23 0 -49.5t-40 -44t-55.5 -20.5t-50.5 25q-26 43 -18 77zM77.5 526.5q-20.5 20.5 -34.5 47t-13 52t27 44.5l721 489q55 37 69.5 62.5t2.5 44t-48 30t-83 17.5t-101.5 6t-102.5 -2t-87 -6t-55 -11q-49 -12 -58.5 3.5t9 40 t56.5 47t81 26.5q23 2 70 4t104 -2t115.5 -14t102.5 -33.5t64.5 -60.5t2.5 -94q0 -6 -8.5 -19.5t-16.5 -28t-17.5 -25.5t-13.5 -11l-633 -433q-14 -10 -33.5 -35.5t-26.5 -50t4 -44t56 -15.5q20 -4 73.5 -4h113h113t73.5 4q10 0 37 6t61.5 15.5t75.5 19.5t75 19.5t60.5 16.5 t36.5 9h56q8 -23 4 -50.5t-31 -35.5q-76 -20 -187.5 -47t-234.5 -43t-239.5 -14t-200.5 47q-19 8 -39.5 28.5z" />
<glyph unicode="@" horiz-adv-x="1685" d="M87 89q-34 73 -44 158t-1 169t30 139q45 135 107.5 252t146.5 214t191.5 176t246.5 134q51 23 114.5 33t129 10t129 -10t114.5 -33q141 -57 224.5 -141t117 -180.5t20 -199.5t-62.5 -202.5t-133 -187.5t-194 -152q-59 -37 -109.5 -47t-97.5 -2t-94.5 28.5t-100.5 47.5 q-27 12 -54.5 9t-56 -15.5t-59 -26.5t-59.5 -22.5t-58.5 -4t-60.5 32.5q-14 63 13.5 142t81 157t126 144.5t148.5 106.5t146.5 42t119.5 -47q10 -10 -14.5 -25.5t-68.5 -35t-99.5 -43t-110.5 -48t-100 -52t-68 -54.5q-57 -70 -70.5 -123t7 -76.5t75 -13.5t132.5 70 q18 12 33.5 48t34 67.5t43 44t63.5 -16.5q4 -23 -5.5 -50.5t-18.5 -55t-15 -52t8 -45.5q18 -29 52 -38t73 -3t81 20.5t81 34t68.5 39t47.5 33.5q117 100 165 202.5t43 197t-54 177.5t-129 144.5t-183.5 97t-214 37.5t-223 -37.5t-209.5 -123.5q-57 -53 -125.5 -134 t-131 -176.5t-107.5 -201t-55.5 -207t25.5 -191.5t134 -157q4 -2 18.5 -10.5t33 -17.5t37 -18.5t26.5 -11.5q86 -37 108.5 -69.5t-10 -44t-110.5 6t-187 79.5q-67 36 -101 109z" />
<glyph unicode="A" horiz-adv-x="1267" d="M969.5 209.5q-11.5 21.5 -17.5 28.5q-18 8 -66 23t-103.5 34.5t-104.5 36t-70 22.5q-4 2 -20.5 11.5t-37 20.5t-36.5 19.5t-22 8.5q-31 0 -58.5 -39t-56.5 -95.5t-59.5 -120t-69.5 -115.5t-84 -81t-103 -12v57q12 14 37 46t56.5 72t66.5 83t65.5 84t54.5 72.5t36 48.5 q20 27 7 78t-41 108t-59.5 115.5t-45 100.5t2 60.5t83.5 -4.5q20 -70 62 -143.5t106 -114.5q53 35 100 93.5t88 133t74.5 158.5t61.5 166t48.5 156t32.5 127q14 23 37.5 36t48.5 21q10 -14 14 -72.5t4 -141.5t-3 -185t-4 -205.5t1 -202t9.5 -174t22.5 -123t42 -47.5h174 v-102h-145q-29 0 -23 -38t30.5 -95.5t56.5 -128t54.5 -136t25.5 -117.5t-30 -75q-6 -4 -28.5 -4t-30.5 4q-6 31 -30.5 104.5t-52.5 156.5t-53.5 156t-33.5 101q-2 8 -13.5 29.5zM732.5 423q27.5 -11 59 -25.5t62.5 -26t43 -17.5q4 -2 13.5 -2t13.5 2q8 68 1 171.5t-18.5 211 t-23 206.5t-15.5 157l-317 -574q6 -6 27.5 -18t43 -25.5t43 -26t29.5 -16.5q11 -6 38.5 -17z" />
<glyph unicode="B" horiz-adv-x="1425" d="M414 -76.5q0 21.5 2 27.5q2 2 10 5t17.5 9t18.5 9t11 6q74 20 146.5 43.5t142 52t134.5 68.5t124 92q143 131 204.5 224t65.5 158.5t-40 104.5t-111.5 58.5t-147.5 20.5t-149.5 -8.5t-116.5 -27.5t-49 -39l-58 -575q0 -14 -15 -22.5t-30.5 -8.5t-28 8t-12.5 23v462h-116 v13.5v13.5q6 10 22.5 30.5t33.5 43t34.5 43t25.5 26.5q2 20 6.5 74.5t8.5 114t8 113t6 73.5q2 45 -10 64.5t-33.5 20.5t-48.5 -12t-53.5 -31.5t-50 -38t-35.5 -29.5q-12 -16 -46 -48t-71 -69t-69.5 -70t-43.5 -47h-88q-14 49 20 100.5t102.5 106.5t161.5 109.5t198.5 103.5 t210 90t196.5 70.5t163 45t101 9.5q29 -6 37 -32.5t4 -58.5t-17 -63.5t-24 -48.5q-51 -72 -95 -131t-89 -111.5t-97.5 -104.5t-119.5 -114q57 -10 108.5 -3t101.5 14.5t105.5 8.5t114.5 -20q37 -12 64.5 -24t49 -30.5t35 -46.5t25.5 -69q20 -100 -17.5 -194t-115.5 -179 t-180.5 -159t-209 -134.5t-204.5 -102.5t-168 -68q-18 -6 -34.5 4t-22.5 24q-2 11 -2 32.5zM710.5 932.5q22.5 21.5 51.5 50.5t60.5 59.5t59 60.5t49 52.5t34.5 34.5q16 16 39.5 48t47 64.5t40 57t16.5 31.5v86q-49 8 -116.5 -9.5t-134 -43t-124 -52t-86.5 -41.5l29 -55 v-377q12 12 34.5 33.5z" />
<glyph unicode="C" horiz-adv-x="1052" d="M120 -13.5q-42 68.5 -60.5 161t-13.5 200t29.5 216t65.5 205.5t97.5 170t127 109.5t152.5 24.5q4 -16 12.5 -57t17.5 -87t16 -87t11 -58q4 -18 -11 -39.5t-35.5 -35t-40 -12.5t-27.5 30q-6 16 -8 47t-8.5 67t-14.5 65.5t-22.5 44t-37 5t-53.5 -56.5q-12 -12 -25 -34.5 t-27.5 -45t-24 -41t-9.5 -22.5l-88 -461q-14 -76 2.5 -136.5t53.5 -103.5t90 -66.5t111.5 -26.5t120 14.5t114.5 60.5q20 14 52 56t68 93.5t75.5 108.5t74.5 103t61.5 75t39.5 25q27 -74 -1 -155t-89.5 -159t-149.5 -144.5t-182.5 -108.5t-186.5 -56t-166 16 q-69 27 -111 95.5z" />
<glyph unicode="D" horiz-adv-x="1165" d="M464 39q5 41 9 95t8 112.5t6 95.5q0 23 1 62.5t1 89v102.5v100t-1 84t-1 54q0 6 -5 22t-8 34.5t-9 34t-10 23.5q-57 2 -116.5 -8t-118 -25.5t-116 -25.5t-108.5 0q-12 27 26.5 56.5t113.5 52t174.5 37t205 12t208.5 -22.5t184 -65.5t131.5 -119t50.5 -182.5 q0 -39 -13.5 -80.5t-34 -84.5t-47 -83t-49.5 -67q-12 -12 -38.5 -40t-60.5 -62.5t-72 -71.5t-71.5 -71t-61.5 -60.5t-42 -40.5q-4 -41 -12 -74t-25.5 -50t-43 -16t-64.5 25q-35 -25 -75 -69.5t-84 -87.5t-91 -68t-92 -4v57l342 287q4 2 9 43zM785.5 240q80.5 84 128 183 t57.5 201.5t-25 180.5t-119 120t-227 23v-835q105 43 185.5 127z" />
<glyph unicode="E" d="M59.5 5.5q-20.5 66.5 -30.5 146.5q2 23 7 71.5t12 111t12.5 132.5t11.5 132.5t9 112.5t5 72q2 14 2 47v138q0 33 -2 47l31 28l518 173h57q8 -23 2 -49.5t-32 -34.5l-431 -177l-28 -26q-2 -2 -5 -36t-8.5 -80t-10.5 -93t-5 -80q0 -6 -1 -27.5t-1 -44t1 -43t1 -28.5 l488 258q12 8 18 -2.5t6 -26.5t-6 -33.5t-18 -23.5q-27 -18 -68 -42t-85 -49.5t-88 -50t-80 -44t-57.5 -33t-23.5 -13.5h-117v-372q0 -76 35 -97.5t87 -9.5t112.5 49t115 78t93.5 77t49 46q4 41 18 67q8 25 24.5 34t43.5 -15q8 -51 -17.5 -111.5t-73.5 -117t-112.5 -103.5 t-132.5 -74.5t-131.5 -29.5t-110.5 32q-63 48 -83.5 114.5z" />
<glyph unicode="F" horiz-adv-x="1122" d="M558 -79.5q-1 26.5 -1 64.5t1 76.5t3 61.5q0 4 5 38t11.5 80t9.5 94t1 77q-2 2 -13.5 2t-13.5 -2q-14 -6 -47 -22.5t-69.5 -35t-69.5 -35t-45 -24.5q-41 20 -34 42.5t39 47.5t83 51.5t99 54t85 59.5t45 64l117 545q4 23 -4 36t-22.5 20.5t-32 7.5t-29.5 -6 q-20 -8 -58 -25.5t-75 -36t-65.5 -34t-33.5 -21.5l-372 -400q-14 -18 -24.5 -12t-14.5 23.5t-2 39t12 33.5q10 16 32.5 45t51.5 66t59.5 79t58 77.5t51 65.5t34.5 42q68 6 126 38t116.5 62.5t119 47t129.5 -6.5q37 -37 46.5 -92t0 -118.5t-29 -131t-39 -131t-32.5 -120 t-3 -93.5q39 -14 77 2.5t76.5 38t78.5 39t83 6.5q6 -25 -7 -49t-21 -37q-16 -6 -58.5 -21t-88.5 -34.5t-86 -36t-54 -24.5q-6 -4 -14.5 -11.5t-18.5 -16.5t-17 -17.5t-9 -14.5q-4 -20 -12.5 -73.5t-18.5 -111.5t-17.5 -111.5t-9.5 -75.5q-4 -20 1 -51t4 -62t-14 -55.5 t-50 -34.5l-27 28q-2 3 -3 29.5z" />
<glyph unicode="G" horiz-adv-x="993" d="M95.5 56.5q-25.5 66.5 -36 143t-8.5 148.5t6 121q2 18 9.5 66.5t16.5 104.5t18.5 105.5t15.5 67.5q41 178 94 287.5t107.5 167t106.5 69t95 -5t72 -55.5t37 -83t-10.5 -86t-71.5 -63q-8 -2 -20.5 -5t-25 -3t-19.5 3t-7 5v173q0 6 -17.5 6t-25.5 -6q-55 -31 -100 -103 t-79 -156t-55.5 -162.5t-23.5 -125.5q-2 -18 -4 -56.5t-3 -87.5t-1 -102t1 -101.5t3 -87t4 -57.5q0 -27 14.5 -58.5t36 -58t46 -49t46.5 -32.5q55 -27 122 -12.5t130.5 59.5t121 109.5t100.5 134t63 137t10 118.5q-61 8 -122.5 -3t-122 -25.5t-122 -25.5t-124.5 -3 q-2 10 -3 23.5t2 25.5t10 22.5t21 14.5q59 0 132 22.5t148 48t144.5 42t122.5 2.5q8 -92 -18.5 -204t-78.5 -216.5t-128 -191.5t-165 -136t-188.5 -48t-197.5 77q-53 39 -78.5 105.5z" />
<glyph unicode="H" horiz-adv-x="1282" d="M722 672q-11 0 -17 -2q-57 -20 -93.5 -36t-61 -28t-44 -21.5t-45 -18.5t-63.5 -18t-95 -22v-575q0 -31 -14.5 -33t-29.5 12.5t-29.5 37t-14.5 40.5q-2 39 -5 92.5t-5 110.5t-6 113.5t-6.5 101.5t-2.5 72l-2 28l-145 58q-2 0 -2 10t2 20q8 16 27.5 26.5t41 17t42 8.5 t34.5 4q0 25 3.5 86t8.5 129.5t9 131t6 83.5q0 6 9 27.5t21.5 46t28 46t27.5 29.5t20.5 -5t8.5 -54q0 -10 -3 -44t-10.5 -73t-10.5 -72.5t-3 -44.5q-2 -18 -3 -62t-1 -94t1 -95.5t3 -63.5q39 -8 107.5 -2t138 26.5t129 51.5t86.5 67q31 47 47 106.5t29.5 122t34 124 t59.5 110.5q49 57 96 79t86 16.5t68.5 -34t39 -70.5t-3 -92t-55.5 -102l-36.5 -36.5t-55.5 -57t-64.5 -66.5t-64.5 -66t-57.5 -56.5t-36.5 -34.5q-10 -100 -7 -207.5t16 -216t33.5 -212t41.5 -200.5h-113l-88 779q0 2 -11 2zM922.5 1033.5q-9.5 -27.5 -18.5 -60.5t-16 -61.5 t-11 -41.5q51 25 93 70t73.5 94t52 98.5t26.5 82t-4 44t-39 -11.5q-43 -37 -85 -78t-60 -96q-2 -12 -11.5 -39.5z" />
<glyph unicode="I" horiz-adv-x="1337" d="M14 -264.5q6 14.5 16.5 26t23 20.5t18.5 13l432 172l28 29q-2 29 -3 87t-1 132v311q0 74 1 132.5t3 86.5q0 8 4.5 33t8.5 53.5t8 53t8 33.5h-373q-23 0 -27.5 12t-2.5 26.5t11 28.5t19 21q201 -16 400 28q35 82 97.5 124t136 57.5t154.5 6t151.5 -33t124 -57t76 -66.5 t6 -62.5t-88 -45t-202 -12.5t-338.5 32q-41 -61 -64 -136t-30 -160t-3 -174t15.5 -174t26 -165t26.5 -143q51 -10 101 -3t101.5 24t100.5 37.5t100 37t100.5 25t102.5 -6.5q6 -18 2 -47t-33 -37q-133 -27 -290.5 -60.5t-318.5 -79.5t-314.5 -104.5t-284.5 -132.5l-31 31 q-4 12 2 26.5zM1001.5 1020q110.5 -8 161.5 -1t53.5 26.5t-30.5 39t-91.5 35t-127 18.5t-138 -13.5t-124.5 -61.5q186 -35 296.5 -43z" />
<glyph unicode="J" horiz-adv-x="1050" d="M250 -273.5q-6 80.5 21.5 181t77.5 209t105.5 204t105.5 167t77 96.5v30.5v28.5q-4 20 -11.5 69.5t-16.5 104.5t-18 103.5t-13 68.5q-8 16 -23.5 25.5t-34.5 1.5l-461 -170q-18 -8 -33.5 2t-22.5 26.5t-1 33t27 24.5l952 315h86q12 -33 7 -49t-19.5 -22.5t-34 -8.5 t-39.5 -6q-16 -6 -57 -17t-88.5 -25.5t-87 -27t-56.5 -16.5q-8 -94 6.5 -190.5t53.5 -184.5l286 146q23 12 45.5 3t33.5 -25.5t7 -36t-28 -27.5q-39 -14 -91.5 -30.5t-103.5 -38t-93 -53.5t-56 -81q-6 -16 -11.5 -77.5t-12.5 -146.5t-20.5 -186.5t-33 -199t-49 -182 t-73.5 -137t-101.5 -61.5t-133.5 40q-61 39 -67 119.5zM426 -338q29 14 57.5 62.5t55 121t47 142t35 125t16.5 71.5v54v176v57q-72 -74 -126 -167t-88 -195.5t-48.5 -209t0.5 -204.5q22 -47 51 -33z" />
<glyph unicode="K" horiz-adv-x="1110" d="M933 5.5q-7 66.5 -19.5 137t-32 142t-51 132t-80 104.5t-115.5 63q-14 2 -33.5 4t-38 2t-32 -2t-13.5 -4l-57 -518q-2 -14 -9.5 -28.5t-18.5 -26t-26.5 -14.5t-33.5 11v592l-256 -162q-20 -10 -50 -1t-38 32q23 31 78 66.5t113.5 74.5t104.5 76t48 70l59 604 q2 14 12.5 22.5t25.5 10.5t28.5 1t19.5 -3v-549l86 57l346 432h56q12 -37 -9.5 -87t-53.5 -97t-64.5 -84t-40.5 -47q-14 -12 -39 -36t-55.5 -52.5t-65.5 -59t-65.5 -58.5t-56.5 -51.5t-38 -31.5q76 -20 147.5 -48t139.5 -65q43 -27 75.5 -80t57.5 -122.5t41 -147.5 t25.5 -150.5t10.5 -133t-5 -95.5t-22.5 -37t-37.5 43q-10 48 -17 114.5z" />
<glyph unicode="L" horiz-adv-x="1079" d="M35 1083q6 4 15 9.5t19.5 7.5t16.5 0t16.5 -9.5t19.5 -15.5t15 -17t6 -14v-921q20 27 67.5 36t113 12t142.5 4t156.5 8t156.5 26.5t141 58.5q63 35 84.5 36t15.5 -20.5t-39 -56t-82 -70.5t-110.5 -61.5t-126.5 -29.5h-49t-77 -1.5t-90.5 0t-89.5 1.5h-75h-50 q-20 -14 -40.5 -50t-45 -69t-52 -53.5t-64.5 -2.5v1182q0 6 6 10z" />
<glyph unicode="M" horiz-adv-x="1654" d="M1243 -39q-39 47 -65.5 103.5t-43 119t-26.5 111.5q-6 27 -13.5 83t-16.5 128t-17 149.5t-19 147.5l-14 129q-6 55 -8 84l-199 -807l-10 -19q-8 -14 -19.5 -32.5t-26.5 -35t-30.5 -23.5t-31 -3t-27.5 27l-432 864l-115 -864q-4 -20 -18.5 -27.5t-29.5 -0.5t-27.5 21.5 t-10.5 35.5l145 1065q0 8 11.5 18t26 16t28.5 7.5t18 -11.5l455 -1007l264 1007q2 4 18.5 25.5t37 40t38 27t23.5 -8.5l27 -114q6 -113 10 -262.5t18.5 -307.5t48 -309.5t99.5 -271.5q6 -8 16 -22.5t24.5 -27t28 -23.5t17.5 -13q16 -8 43.5 -2t58.5 9t57.5 -4.5t40.5 -31.5 q14 -29 3 -44.5t-35.5 -23.5t-58 -9t-66.5 1t-60.5 7t-42.5 9q-55 23 -94 70z" />
<glyph unicode="N" horiz-adv-x="993" d="M27.5 396q-7.5 253 1.5 503q2 10 13 31.5t26.5 41t35 27t39.5 -11.5l146 -145l403 -664l8 -10q10 -12 23.5 -24.5t28 -19.5t26.5 -1q-2 29 -7 85t-11 125.5t-12.5 148.5t-12.5 149.5t-10 128t-4 82.5q-2 23 -2 74t5 113.5t17.5 129t37 116.5t58 75.5t83.5 9.5 q8 0 19 -11.5t11 -17.5q-14 -14 -30.5 -34.5t-32 -44t-30.5 -47t-19 -46.5q-2 -23 -2 -66.5t-1 -102t0 -120t1 -120.5v-99q0 -47 2 -67q0 -14 3 -64.5t8 -109t10 -109.5t5 -65t1 -49t1 -72t-1 -68t-1 -39q-2 -8 -8 -24.5t-18.5 -30.5t-26.5 -17.5t-33 15.5l-203 201 l-372 604l-45 28v-893q0 -23 -14.5 -28.5t-32 -1.5t-34 13t-20.5 17q-22 252 -29.5 505z" />
<glyph unicode="O" d="M53.5 106.5q-20.5 100.5 -9.5 207t40 214t45 199.5q8 37 10 88t8.5 107.5t14.5 110.5t26 100q2 2 11.5 12t15.5 14q115 68 206 52.5t157.5 -89t107.5 -192.5t54.5 -254t-1 -273.5t-58.5 -254t-118 -193.5t-176 -92q-41 -4 -70.5 -5t-56.5 3t-50.5 18.5t-51.5 42.5 q-84 84 -104.5 184.5zM390.5 -69.5q64.5 8.5 110.5 59.5t75.5 137t45 188.5t17.5 212t-6 205.5t-26.5 172t-45.5 111q-61 82 -107 107.5t-80 15t-56.5 -53.5t-35 -101t-16.5 -125.5t-1 -128t13.5 -109t24.5 -66.5q2 -6 22.5 -21.5t46 -34t49 -42t37 -48t13.5 -46t-27 -39.5 q-23 -14 -47 -7t-51 25t-52.5 46t-47 54.5t-36.5 50t-22 33.5l-30 -57v-346q0 -8 8 -28.5t20.5 -43t27.5 -42t30 -29.5q82 -58 146.5 -49.5z" />
<glyph unicode="P" horiz-adv-x="1052" d="M365.5 320.5q-25.5 -21.5 -58.5 -45t-67.5 -36t-65.5 -3.5q-16 6 -23.5 16t-9.5 22.5t-2 25.5t4 24l303 174v489q0 14 18.5 21.5t40 7.5t40 -7.5t18.5 -21.5v-403q70 35 136.5 90t115.5 113.5t70.5 114.5t0 98t-95 62.5t-215.5 10.5q-31 -4 -76.5 -18.5t-101 -36 t-112 -45t-108.5 -42t-91 -27.5t-57 -5q4 31 22.5 52.5t44 40t53 31.5t54.5 21q102 35 175 57.5t142.5 35t149.5 11.5t194 -15q92 -25 128 -65t32 -89t-41 -105.5t-90 -111.5t-112.5 -108.5t-111 -96.5t-86 -73.5t-36.5 -45.5l-58 -516l-10 -14q-8 -10 -20.5 -22.5 t-27.5 -20.5t-28 -2v489q-12 -10 -37.5 -31.5z" />
<glyph unicode="Q" horiz-adv-x="1136" d="M732.5 -86q-21.5 16 -43 35.5t-43 36t-28.5 22.5q-70 -70 -140 -92t-133.5 -11t-118 53t-95.5 102.5t-64.5 135t-23.5 156.5q0 113 11.5 229.5t35 231.5t62 225.5t92.5 208.5h-14.5h-14.5q-4 -2 -17.5 -11t-26.5 -18.5t-24.5 -17.5t-17.5 -10q-27 51 -6.5 83t71 42 t121 -4.5t145.5 -58.5t145.5 -117.5t120.5 -180t71.5 -249t-6.5 -324.5q-4 -16 -14.5 -56t-24 -87.5t-27.5 -88t-20 -55.5q57 -68 101 -101.5t86 -33.5t86 34t101 101q18 -45 11 -84t-31.5 -68.5t-62.5 -49t-78.5 -27.5t-82.5 -1t-71 27q-10 7 -31.5 23zM399 -12 q43 0 84 17.5t65.5 48t12.5 69.5l-145 432q-16 47 -40 55t-48.5 -4t-48 -36.5t-35.5 -43.5q-6 0 -17.5 11.5t-11.5 17.5q0 25 11.5 51.5t27.5 49t35.5 42t40.5 29.5q43 20 83 -3.5t72.5 -74.5t60 -118.5t49 -132t34 -117t18.5 -72.5q39 18 56.5 77.5t21.5 140.5t-7 174 t-29.5 180t-44.5 157t-56 106q-16 23 -52 51.5t-75 58.5t-75 60.5t-56 61.5l-6 -12q-2 -8 -8.5 -17.5t-9.5 -17.5t-3 -12q-27 -90 -59.5 -196t-59 -214.5t-41 -220t-2 -215t55.5 -195.5t133 -168q26 -20 69 -20z" />
<glyph unicode="R" horiz-adv-x="1193" d="M310 -17.5q-3 60.5 -4 137.5t-5 162t-7 160.5t-4 136t-1 91.5q0 10 -1 34.5t-1 52t1 52.5t1 33q-20 -8 -48 -33t-58.5 -54.5t-63.5 -54t-62 -30.5q-37 23 -33.5 57.5t37 73.5t91 80t126 79.5t141.5 69.5t138.5 51.5t116.5 27.5t76 -9q47 -47 45 -118t-32 -152.5t-78 -170 t-93 -170t-76 -153.5t-29 -124t48.5 -76.5t156.5 -12.5q55 14 116.5 43t120 65.5t108.5 75.5t85 74q59 -14 65.5 -43t-23 -63.5t-87 -72.5t-130.5 -74t-151.5 -63.5t-151.5 -43t-130 -13.5t-82 29q0 -10 -2 -36t-7 -52.5t-16.5 -51t-33.5 -34.5q-16 -6 -32.5 5t-25.5 23 q-2 31 -5 91.5zM709 938q-12 39 -40 54.5t-63 14.5t-70.5 -15.5t-66.5 -36t-51.5 -45t-20.5 -44.5l6 -610z" />
<glyph unicode="S" horiz-adv-x="921" d="M116 -7.5q-50 62.5 -68.5 129t-11.5 130t25.5 102.5t42 43t39.5 -45q-18 -102 0.5 -180t60.5 -129t101.5 -74.5t121.5 -24.5t122.5 22.5t103.5 67.5t63.5 110.5t4.5 150.5q-10 39 -46 94t-81 117.5t-93 128t-80 126t-41 112t23 83.5q27 23 79.5 66t112.5 87t124.5 76 t118.5 32q37 0 39 -11.5t-17.5 -31t-56.5 -46t-81 -56.5t-88 -64.5t-75 -68.5t-44 -66.5t3 -59.5q59 -84 119.5 -171t104.5 -171t68 -164t7.5 -153.5t-81 -140t-189.5 -122.5q-76 -31 -143.5 -29.5t-143.5 29.5q-94 39 -144 101.5z" />
<glyph unicode="T" horiz-adv-x="1181" d="M603 152.5q-5 115.5 -13 230.5t-13.5 230.5t-1.5 228.5q-18 -4 -56 -13.5t-86 -20.5t-102.5 -24.5t-102.5 -24.5t-86 -20.5t-56 -11.5q-23 -6 -45.5 5t-40.5 24l57 57q264 25 517 101.5t491 185.5h88q6 -12 -1 -26.5t-20.5 -28t-27.5 -21.5l-10 -8l-402 -146 q-2 0 -3 -39.5t-1 -94t1 -114t3 -96.5q0 -14 2 -59t5 -103.5t6.5 -125t6.5 -126t5 -103.5t4 -58q0 -29 -16.5 -52.5t-36 -31.5t-39 2t-25.5 53q4 115 -1 230.5z" />
<glyph unicode="U" horiz-adv-x="1032" d="M63.5 -4q-12.5 43 -17.5 92t-5 96t2 84q2 23 6 78t10.5 123t11.5 142.5t11 142t10 123t8 79.5q6 14 22.5 26.5t35.5 4.5q23 -14 30 -34.5t7 -47t-3.5 -51.5t-3.5 -41q-6 -86 -22 -191.5t-25.5 -215t-2.5 -214t50 -184.5q23 -47 55.5 -44t70.5 34t76 83t68.5 105.5 t50 99.5t23.5 66v33q0 25 -1 54.5t-1 54t2 32.5q2 25 10.5 86.5t16.5 130t16.5 129t12.5 84.5q10 27 38.5 32t49.5 -1q6 -94 -3 -188t-19.5 -187.5t-14.5 -187.5t8 -188q12 -82 42 -126t68 -56.5t84 0t92 39t90 58t79 58.5t59.5 44t32.5 15q14 -47 -15.5 -99t-87 -96 t-134 -73t-152.5 -26t-140.5 43t-103.5 135q-27 -23 -58.5 -63t-68.5 -83t-78 -82t-83 -57.5t-87 -8t-86 63.5q-24 31 -36.5 74z" />
<glyph unicode="V" horiz-adv-x="1093" d="M77.5 783.5q-16.5 19.5 -26.5 42t-10 44t31 29.5q12 6 33.5 6t23.5 -6l287 -690q14 111 35.5 223.5t58.5 221t91 209t132 181.5q23 27 62 66t75.5 76t64.5 63.5t30 26.5h86q12 -20 -7.5 -44t-47 -44.5t-56.5 -36.5t-35 -18q-133 -133 -208.5 -274.5t-116.5 -295 t-56.5 -320.5t-19.5 -352l-15 -6q-6 -4 -15 -8t-17 -8t-13 -6q-6 -2 -16 -2t-12 2l-316 893q-6 8 -22.5 27.5z" />
<glyph unicode="W" horiz-adv-x="1253" d="M84.5 -39q-21.5 45 -33.5 94t-17 98.5t-5 82.5q-2 20 -2 63t-1 98.5t0 113.5t1 112v98q0 45 2 63q10 29 36.5 33t51.5 -4q0 -27 2 -78t4 -116.5t5 -137t7 -136t5 -117t3 -76.5q2 -23 8.5 -51.5t15.5 -57.5t25.5 -53.5t38.5 -38.5q37 29 67 93.5t54.5 145t44 172t39 170 t36.5 140t37.5 87t44.5 8.5t50 -97q4 -8 12.5 -35t20.5 -62.5t24.5 -75.5t24.5 -76t21.5 -61.5t13.5 -35.5q16 -45 41.5 -99.5t58.5 -103.5t68 -82t70.5 -37t69.5 30t65 120q2 20 3 62t2 97.5t1 114.5t-1 113.5t-2 96.5t-3 64q0 10 -8.5 51.5t-18.5 90.5t-19.5 91t-11.5 54 q0 14 5.5 44t16.5 53.5t27.5 26.5t36.5 -38q27 -111 50.5 -238.5t34 -260t-1 -262.5t-52.5 -246q-37 -94 -80 -135.5t-90 -39t-94 37t-91 90t-85 124t-75 135t-57.5 125t-33.5 95.5h-29q-4 -16 -11 -58.5t-16.5 -88.5t-17.5 -86t-12 -56q-8 -29 -21.5 -71t-34 -87t-47 -87 t-59.5 -67.5t-71 -30.5t-85 25q-37 25 -58.5 70z" />
<glyph unicode="X" horiz-adv-x="1208" d="M210.5 31.5q20.5 70.5 47.5 141.5t42 138.5t-11 126.5q-33 74 -81 143.5t-88 141.5t-61.5 149.5t-1.5 171.5q72 16 109 -6t53.5 -66t20.5 -103.5t12 -118t27.5 -111.5t64.5 -84q6 2 17.5 13.5t11.5 15.5q43 68 72.5 119t55 94t48 79.5t54.5 73.5t73 81t102 102 q86 78 159 86t124 -32t75.5 -119t16.5 -172t-54 -191.5t-136.5 -176t-227.5 -128t-332 -48.5q-27 -47 -45 -106.5t-33.5 -122t-23.5 -123.5t-12 -109q-4 -12 -18.5 -20t-27 -10t-24.5 5t-16 25q-13 70 7.5 140.5zM457 482.5q0 -11.5 4 -13.5q145 -23 252.5 4t181.5 82 t116 130t56 149.5t1 140t-47 100.5t-89 31t-128 -65.5t-159 -192.5t-184 -350q-4 -4 -4 -15.5z" />
<glyph unicode="Y" horiz-adv-x="1015" d="M266 -434.5q-8 69.5 5.5 145.5t42 155t63.5 150.5t73.5 133t67.5 100.5q70 94 115 162.5t61.5 136t2 143.5t-61.5 191q-53 -225 -132 -392t-159 -265.5t-153.5 -120t-119.5 44t-54.5 225.5t40.5 426q8 25 37 29t49 -3v-546q0 -72 21.5 -88.5t52.5 3t66.5 63.5t67.5 90 t54.5 84t26.5 50q6 23 21.5 71t33 111.5t36 132t34.5 131t29.5 113t17.5 74.5q6 12 19.5 20.5t27 10.5t25.5 -5t16 -26l113 -549q4 -10 26.5 -4t55.5 23.5t71.5 41t72.5 47t59.5 41t31.5 25.5q53 -8 55.5 -30.5t-26.5 -54t-78 -67.5t-98 -68t-89 -59.5t-48 -37.5 q0 -16 -2 -49t-5.5 -77t-6.5 -90t-6 -89t-7 -76l-6 -51q-2 -20 -14.5 -68.5t-34 -109t-51 -127t-63.5 -127t-73 -107.5t-81 -68.5t-86 -9t-87 69.5q-41 51 -49 120.5zM458.5 -522q30.5 10 61.5 48t60.5 93t53 109.5t39 96.5t19.5 52q23 113 29 231.5t0 229.5 q-47 -39 -100.5 -100.5t-101.5 -133t-89 -151.5t-60.5 -159t-14.5 -153.5t48 -136.5q25 -36 55.5 -26z" />
<glyph unicode="Z" horiz-adv-x="1110" d="M1029 384q-42 -93 -103.5 -182t-138 -168t-154.5 -127t-147.5 -59.5t-118 31.5t-68.5 150.5t4 294.5l184 643l-415 -353q-2 0 -10.5 6.5t-14.5 14.5t-9 18.5t5 16.5l489 430q23 18 41.5 23t31.5 -4t17.5 -28.5t-4.5 -46.5q-37 -113 -73.5 -216t-66 -204.5t-53.5 -203 t-38 -211.5q-14 -125 7.5 -180.5t67.5 -60.5t106.5 28t120 81t111.5 101t77 90q14 18 23 51t17.5 72t18.5 78t24.5 67.5t36 43t54.5 4.5q4 -2 15 -12.5t13 -16.5q-8 -78 -50 -171z" />
<glyph unicode="[" horiz-adv-x="1079" d="M41 -93q0 11 2 15q31 170 69 347t66.5 355.5t40.5 355.5t-4 351q2 6 34 17.5t80 27t105.5 31.5t111.5 33.5t98 34t61 28.5q10 8 35.5 27.5t53 42t51 44t32.5 32.5h88v-29l-144 -143l-463 -201l-170 -1210q98 -10 204 -5t213.5 14t213 16t201.5 3q8 -23 4 -50.5t-33 -35.5 q-18 0 -56 1t-85 1h-205q-47 0 -85 -1t-56 -1q-35 -2 -80 -18.5t-91 -36t-94.5 -39.5t-88 -32.5t-68.5 -11.5t-39 21q-2 5 -2 16z" />
<glyph unicode="\" horiz-adv-x="892" d="M293 243.5q-86 100.5 -147.5 216t-91 241.5t-11.5 255q23 10 50.5 5t35.5 -31q23 -162 69 -299t122.5 -256t186 -217.5t257.5 -177.5q57 -8 81.5 -33t23.5 -47.5t-28.5 -34.5t-76.5 -2q-18 10 -60 38.5t-87.5 60.5t-86.5 61.5t-57 42.5q-94 77 -180 177.5z" />
<glyph unicode="]" horiz-adv-x="993" d="M452.5 -70.5q-57.5 11.5 -118 15.5t-128 4t-149.5 2q-8 4 -17 18.5t-12 28.5t3 26.5t26 12.5h547q2 152 9.5 320.5t25.5 340.5t52 341t87 321h-604l-117 31q-16 4 -7 13t28.5 18.5t40 17.5t24.5 8q10 0 44 -6t72 -10.5t72 -9.5t42 -5q23 0 74 -1t106 -1t103.5 1t64.5 1 q27 2 51.5 14.5t48 23.5t48 19.5t51.5 2.5v-60q-72 -154 -108 -297t-52.5 -287.5t-22.5 -297t-16 -326.5q-4 -41 2 -88t12 -90t6 -81t-15 -59.5t-51 -23.5t-100 24q-65 27 -122.5 38.5z" />
<glyph unicode="^" horiz-adv-x="1415" d="M1043.5 853q-60.5 19 -109.5 44t-81 71t-30 140l-354 -338q-23 -4 -35 5t-15 27.5t-1 36t6 27.5q2 4 0 4t4 8.5t24.5 31t64.5 69.5t121 127t193 205q4 6 14.5 3t12.5 -9q41 -57 60.5 -101.5t33 -77t24.5 -60.5t37.5 -53.5t73 -53t125.5 -60.5l-47 -108q-61 43 -121.5 62z " />
<glyph unicode="_" horiz-adv-x="1540" d="M27 -84q4 10 14 17.5t22.5 11.5t22.5 6q33 6 99.5 22.5t151.5 34t179 35.5t180 34.5t152.5 30t101.5 15.5q29 4 74 7t97.5 4t106.5 1t98 -1t75 -4t39 -7l57 -29q2 -31 -24.5 -44t-69.5 -16t-94.5 2t-100.5 12t-88 13.5t-55 4.5q-29 -4 -90.5 -15.5t-137 -26t-160.5 -29.5 t-162 -28.5t-137.5 -27t-88.5 -17.5q-8 -2 -44 -19.5t-79 -30.5t-82 -13t-55 32q-6 15 -2 25z" />
<glyph unicode="`" horiz-adv-x="385" d="M49 1131.5q4 21.5 21.5 17.5t45 -28.5t60.5 -53.5t68 -53.5t65 -26.5q4 -39 -9 -55.5t-37.5 -14t-55.5 17.5t-58.5 33.5t-52 40t-37.5 35.5q-14 66 -10 87.5z" />
<glyph unicode="a" horiz-adv-x="839" d="M36 32.5q-3 71.5 7 145.5q2 25 8 71t14.5 102.5t18.5 120t18.5 119.5t15.5 99t11 66q12 70 28.5 119t44 75.5t71.5 28.5t114 -23q8 -2 18.5 -13t10.5 -13q4 -23 13 -68l20.5 -102.5t24.5 -118.5t23.5 -118.5t19.5 -102.5t15 -68q25 -117 62 -163t78 -48t86 28t87 62.5 t81 55t65 8.5q0 -31 -14 -60.5t-35.5 -55t-46.5 -48t-45 -37.5q-94 -61 -155.5 -64t-105.5 27.5t-70.5 86t-46 111.5t-39 100t-46.5 57q-6 -23 -21.5 -75t-34 -112.5t-34.5 -114t-25 -73.5q-2 -8 -12 -31.5t-27.5 -51.5t-38 -53.5t-42 -40t-43 -9t-37.5 39.5 q-33 70 -36 141.5zM155 307q-1 -53 -1 -111.5t1 -112.5t3 -75q57 88 103 205t70.5 243t19.5 248.5t-48 225.5q-31 -53 -55.5 -131t-42 -158t-30.5 -151.5t-17 -108.5q-2 -21 -3 -74z" />
<glyph unicode="b" d="M230.5 -68.5q19.5 27.5 56.5 57t83 59.5t88 58.5t73.5 54t43.5 48.5q25 49 43.5 115.5t23.5 129t-1 113.5t-31.5 68.5t-68.5 -6t-109 -103.5q-18 -25 -44 -83t-54.5 -129.5t-57 -143.5t-57.5 -122t-55.5 -65.5t-46.5 25.5q0 12 1 40t1 59.5t-1 60.5t-1 41 q-6 113 -12.5 220.5t-13.5 214t-16 213t-18 216.5q-2 47 4.5 63.5t17.5 11.5t27.5 -29.5t31 -59.5t24.5 -77t12 -83q0 -18 1 -61t5 -97.5t7 -114t5.5 -113.5t5.5 -97t5 -64q37 27 61.5 66t50 80t52 79.5t65.5 63.5q106 68 175 73t107 -32t45 -106.5t-13.5 -154.5t-64.5 -177 t-108.5 -173t-147.5 -140.5t-179 -80.5l-15 13q-10 12 -12 16q-8 25 11.5 52.5z" />
<glyph unicode="c" horiz-adv-x="862" d="M56.5 34.5q-27.5 65.5 -29.5 141.5t16 158t49 157.5t71 142t80 112t74.5 64.5t55.5 3q4 -18 13 -67.5t18.5 -105.5t16.5 -104.5t11 -66.5q2 -20 1 -45t-9 -44.5t-27.5 -28.5t-52.5 1q-2 12 -9 40t-16.5 60.5t-18.5 62.5t-11 40l-29 29q-51 -35 -86 -100.5t-49 -140.5 t-7 -149.5t38.5 -132t87 -87t139.5 -9t196.5 97t258.5 232.5v-59q0 -4 -20.5 -29t-49.5 -56.5t-57.5 -63.5t-48.5 -50q-55 -51 -117 -95t-128.5 -64.5t-135 -13.5t-138.5 58q-59 47 -86.5 112.5z" />
<glyph unicode="d" horiz-adv-x="878" d="M34 55.5q-5 65.5 2 148.5t26.5 174t48 172t65.5 148.5t83 104.5t96.5 36t105.5 -55l57 463q2 6 13.5 17.5t15.5 11.5q8 0 17 -4t18.5 -7t15.5 -9.5t6 -8.5v-809q0 -90 33 -156.5t83 -97t117.5 -20.5t141.5 72q25 0 22.5 -20.5t-19.5 -48.5t-50 -57.5t-72 -49t-83 -20.5 t-85 26q-35 23 -61.5 52t-47 64t-38 71t-27.5 71q-8 -14 -23.5 -43t-36 -67t-41 -78t-41 -76.5t-36.5 -66.5t-25 -42q-25 -45 -58.5 -66.5t-71.5 -21.5t-71.5 21.5t-56.5 66.5q-18 39 -23 104.5zM151.5 -3q6.5 -7 15.5 -14.5t18.5 -9.5t17.5 7q82 61 132 146t82 179 t50 193.5t35 187.5q-90 12 -153.5 -13.5t-107.5 -76.5t-69 -123t-35 -150.5t-7 -160.5t13 -154q2 -4 8.5 -11z" />
<glyph unicode="e" horiz-adv-x="870" d="M234.5 20.5q-39.5 73.5 -60.5 157.5q-12 -8 -31.5 -17t-40 -16.5t-41 -9.5t-28.5 4t-5 21.5t29 48.5l21.5 21.5t38 37t37 35.5t20.5 21q16 43 20.5 93t5.5 103t6 106.5t25 100.5q10 25 42 64.5t74 75.5t83 66t73 36t46 -15.5t-2 -83.5q-18 -72 -55 -141.5t-77 -136 t-75 -133t-51 -135.5q-8 -37 -8 -88.5t12 -102.5t37.5 -94t72.5 -59q51 -20 105.5 -10t105 38.5t96.5 70.5t87 87t71.5 87t51.5 71l30 -29q10 -8 -15.5 -55t-74.5 -106.5t-115.5 -120t-136 -102.5t-139.5 -52.5t-125 32.5q-70 56 -109.5 129.5zM287 583.5v-43v-43t2 -28.5 q53 92 99 194.5t73 206.5q-39 -12 -70 -39.5t-51.5 -63.5t-33.5 -76t-17 -77q-2 -10 -2 -30.5z" />
<glyph unicode="f" horiz-adv-x="892" d="M379 -90q-4 12 -8 27.5t-8.5 25.5t-4.5 17q-2 18 -4 56t-6 86t-6 102.5t-5 102.5t-5 87t-2 55q-4 2 -14.5 2t-14.5 -2q-14 -2 -46 -10t-69 -21l-69 -16q-33 -6 -45 -10l-74 73l332 99l57 633q6 63 37 105t75 66.5t90 30.5t78.5 -8t46 -48t-8.5 -87q-25 -18 -38.5 -15 t-21.5 15t-13 28.5t-14 26.5q-31 33 -55 21.5t-41.5 -51t-32 -102t-22.5 -132.5t-12 -142.5t-7.5 -132t-3.5 -100.5v-51q33 -8 74 3t83 32.5t84 46.5t79 37t65.5 8t47.5 -41l-56 -57l-348 -144l-29 -28q-2 -4 -3 -47t-1 -103.5t1 -122t3 -102.5q2 -18 13.5 -54t18.5 -77 t2 -77t-34 -52q-18 -6 -33.5 5t-23.5 23q-4 7 -8 19z" />
<glyph unicode="g" horiz-adv-x="894" d="M261 -499.5q-3 75.5 25.5 162.5t79 179t103.5 177t98 158t68 118q10 27 5 75t-18.5 99t-26.5 92t-20 53l-28 -30l-316 -547q-4 -4 -14 -12.5t-24.5 -16.5t-27.5 -16t-22 -12q-53 -23 -77.5 3.5t-25.5 86t17.5 143.5t54 177t84 187.5t105.5 175.5t119.5 139t124.5 77 q33 -10 34 -25.5t-16.5 -35t-46.5 -41t-60.5 -43t-57 -40t-33.5 -30.5q-41 -86 -83 -165t-76 -157t-52.5 -160t-10.5 -178l31 29q59 74 109.5 168t91.5 190.5t76.5 182.5t64.5 144t57.5 78.5t55 -19.5t57.5 -149.5t64 -305.5q8 6 31.5 23.5t51 35.5t53 33.5t34.5 21.5 q10 2 30.5 2t28.5 -2q-8 -31 -38 -69.5t-65.5 -73.5t-65.5 -60.5t-32 -27.5q0 -16 -1 -49t-4 -77t-5 -90t-6 -89t-8 -76l-4 -51q-2 -20 -23.5 -77.5t-53.5 -129.5t-73 -143.5t-87 -118.5t-97 -57.5t-101 38.5q-51 50 -54 125.5zM400 -384q-1 -32 -1 -68.5t1 -70.5t3 -44 q86 37 144.5 122t89.5 191.5t36 216t-11 191.5q-47 -41 -91.5 -100.5t-79 -126t-57 -136.5t-31.5 -131q-2 -12 -3 -44z" />
<glyph unicode="h" horiz-adv-x="778" d="M181 258q-7 160 -27.5 319.5t-47 323.5t-49.5 346v16.5v26v25.5v16h60q4 -31 14 -93t25.5 -142t31 -168t29.5 -167t25.5 -142.5t17.5 -92.5q0 -6 4 -18t8 -25.5t9.5 -26t7.5 -18.5q4 14 19.5 47t33.5 70t35.5 68.5t25.5 46.5q27 47 68 88t81 50t71.5 -19.5t38.5 -118.5 q2 -20 5 -65.5t5 -103t6 -120t7 -119.5t5 -101t2 -67q18 -23 27.5 -53.5t1.5 -60.5q-33 -10 -57.5 2t-41 36.5t-27.5 54t-20 50.5q4 63 5.5 137t-0.5 149.5t-9.5 150.5t-23.5 140q-29 14 -54.5 -12t-48 -80.5t-43 -127t-39 -152.5t-36 -160t-32.5 -145.5t-30.5 -107.5 t-32.5 -52l-57 59q14 176 7 336z" />
<glyph unicode="i" horiz-adv-x="331" d="M50 -25.5q-5 19.5 -10 43t-8 45t-3 31.5v805q0 16 14 24.5t33.5 8.5t35 -1t17.5 -1v-893q0 -29 18.5 -47.5t43 -28.5t51 -13t45.5 3q23 -35 -1 -56.5t-68 -23.5t-91 16.5t-70 63.5q-2 4 -7 23.5zM38 1250.5q38 13.5 79 -3.5v-88q-6 -2 -18.5 -3t-27 -1t-26.5 1t-16 3 q-6 2 -17.5 13.5t-11.5 17.5q0 47 38 60.5z" />
<glyph unicode="j" horiz-adv-x="438" d="M-119 -1036q-8 45 -5 93t13.5 93t24.5 80q6 20 21.5 60t35 92.5t41 108.5t42 106.5t36.5 91.5l27 59q6 66 -1 128.5t-19.5 121.5t-31 118.5t-36.5 121.5q-6 23 3 36t23.5 18t31.5 0t30 -24q25 -47 39 -92t24 -92t19.5 -96t29.5 -97q18 14 58.5 48t91.5 67t103.5 53.5 t92.5 6.5q6 0 17.5 -11.5t11.5 -17.5q-12 -23 -44 -43.5t-71.5 -40t-84 -39.5t-80 -42t-58 -45.5t-22.5 -49.5v-604q0 -29 -14.5 -73t-38 -93t-56.5 -93t-69.5 -67t-75.5 -17.5t-76 54.5q-25 35 -33 80zM-3 -873.5q-1 -33.5 -1 -69.5t1 -68.5t3 -45.5q4 -2 14.5 -2t14.5 2 q27 14 47 58.5t34.5 92.5t23.5 90t9 46q2 20 3 68.5t1 103.5t-1 105.5t-3 68.5q-53 -94 -94 -194.5t-49 -208.5q-2 -13 -3 -46.5zM116.5 766q12.5 16 35 20.5t45 -2t32.5 -26.5q10 -23 -3 -36t-33.5 -18.5t-44 0t-31.5 25.5q-13 21 -0.5 37z" />
<glyph unicode="k" horiz-adv-x="798" d="M163 56q11 50 19 107.5t10.5 115t-10 96.5t-46.5 51t-99 -14q-37 8 -42 26.5t10 42t42 51t55.5 57t51 57.5t24.5 54q-2 12 -5 57.5t-9 104t-13.5 125t-13.5 125.5t-10 104.5t-6 59.5q0 23 1 41t11 31.5t27.5 17.5t46.5 -6q8 -61 16 -142t18.5 -165t22.5 -168t29 -158 q16 12 39.5 44t50.5 72t56.5 79t56 62.5t49 27.5t37.5 -25q2 -4 2 -14t-2 -17q-20 -66 -67.5 -122t-96.5 -109t-86 -108.5t-39 -118.5q14 -12 45 -45l143 -144q41 -41 78 -77.5t64 -65.5l45 -43l30.5 -30.5t39 -49.5t17.5 -51.5t-30 -40.5q-4 -2 -14.5 -2t-14.5 2 q-84 104 -186 212.5t-217 188.5q-2 -14 -4 -46t-9.5 -71.5t-12.5 -84t-11 -83t-11 -70.5t-9 -46q-2 -10 -9.5 -27.5t-19.5 -34t-26.5 -24.5t-30.5 -2q0 8 -1.5 23.5t-1.5 34t1.5 34.5t1.5 25q2 26 13 76z" />
<glyph unicode="l" horiz-adv-x="413" d="M74.5 -36q-17.5 48 -24.5 102.5t-7 101.5v68q0 18 2 74.5t5 130t6 157.5t6.5 157.5t6.5 128t3 72.5q0 27 1 87.5t1 130t-1 130t-1 87.5q25 18 43 22q16 8 29.5 4t13.5 -26v-1354q0 -12 8 -28.5t18.5 -27t26.5 -13.5t33 12l200 172q8 -39 -1 -81t-31.5 -79t-55 -65.5 t-71.5 -45t-79 -15.5t-77 25q-37 25 -54.5 73z" />
<glyph unicode="m" horiz-adv-x="1236" d="M538 30.5q1 73.5 -3.5 148.5t-11.5 148.5t-19 141.5q-25 121 -60.5 184.5t-74.5 68.5t-73 -50.5t-52 -173.5q-4 -18 -8.5 -57.5t-10.5 -87.5t-12 -101t-12 -101.5t-8.5 -86t-4.5 -56.5q-12 -27 -38.5 -32t-49.5 4l-57 862q-2 23 10.5 38t26.5 21t28.5 0t20.5 -31l59 -256 q51 123 94.5 175.5t82 54.5t72.5 -37t66 -92t59.5 -113.5t55.5 -103.5q70 233 156 336.5t167 85t142.5 -154.5t81.5 -384q4 -39 5 -100.5t1 -121t-1 -104.5t-5 -47l-30 -28l-56 57q8 84 4 178t-17 189.5t-33.5 184.5t-41.5 167q-23 66 -55.5 77t-66 -10.5t-62.5 -66.5 t-43 -86q-10 -25 -24.5 -66t-28 -83t-23.5 -73.5t-12 -35.5q-4 -31 -13.5 -103.5t-18.5 -155.5t-16 -157t-10 -105q0 -25 -13 -27.5t-30 3.5q-18 6 -43 24q5 66 6 139.5z" />
<glyph unicode="n" horiz-adv-x="839" d="M119 -33v226q0 53 -2 75q-2 8 -6.5 41t-10.5 79t-12 95t-13 93.5t-11.5 78t-6.5 45.5q-2 23 -1 47.5t9.5 43t26 25.5t51.5 -3q2 -35 7.5 -82t11.5 -98t16 -101.5t25 -93.5q20 63 41.5 110.5t48 86.5t59.5 76t80 73q57 49 96 40t64.5 -57t43 -123t30 -159t27 -163.5 t36 -139t54 -86t81.5 -2.5q14 -45 4 -65.5t-36.5 -22.5t-60.5 13.5t-67.5 42t-60.5 65.5t-39 82q-4 29 -10 97.5t-15.5 146t-31 153.5t-58.5 121l-116 -113q-4 -8 -23.5 -60t-42 -122t-45 -140.5t-31.5 -113.5q-4 -14 -9 -54t-10 -87t-7 -88t-2 -58q-14 -31 -43 -30.5 t-43 30.5q2 23 2 76z" />
<glyph unicode="o" horiz-adv-x="571" d="M117 86q-8 76 0 159t26.5 168t32.5 163.5t15.5 147.5t-23.5 118q-12 27 -35.5 25.5t-49.5 -6.5t-50.5 -4t-44.5 32q2 6 12 16t14 13q150 23 250.5 -29.5t160.5 -148t81.5 -218.5t15.5 -243.5t-37.5 -224t-80 -160t-110 -50.5t-126.5 107q-43 59 -51 135zM264 -4 q8 -8 16.5 -18.5t16.5 -17.5t12 -9q63 35 93 94t35 132t-7 154t-34.5 155.5t-54.5 137t-58 103.5q-2 -23 -7.5 -67t-10.5 -101t-11 -119.5t-12 -120t-11.5 -102.5t-7.5 -65q0 -16 2 -38t7.5 -41.5t11.5 -37t10 -27.5q2 -4 10 -12z" />
<glyph unicode="p" horiz-adv-x="935" d="M74.5 -904q-21.5 46 -34.5 97t-19.5 101.5t-8.5 80.5q-4 141 -3 300t29 315.5t83 301t151 263.5q51 63 100.5 112.5t103.5 90.5t116.5 69.5t140.5 44.5q70 14 108 -15.5t50 -87.5t0 -139t-41 -166t-69 -167t-86 -143.5t-96 -95t-95 -21.5q-8 10 13.5 54t57 106.5 t77.5 140.5t77 156.5t54.5 155.5t7.5 134q-4 29 -29 33t-54.5 -2t-56 -16.5t-33.5 -14.5q-127 -53 -219 -156.5t-154.5 -237.5t-98 -284.5t-50 -298t-11.5 -280.5t20.5 -230.5t46 -147.5t63.5 -34q4 2 14.5 14.5t14.5 14.5q25 72 39 155t21 172t9 180t0 177t-5 162t-7 133 q-6 14 -9 45t-3 66.5t2 71.5t10 54.5t22.5 13.5t34.5 -48q2 -20 7.5 -73.5t9.5 -114t8 -114t4 -73.5q2 -25 2 -66v-86v-192v-74t-2 -41q0 -18 -7 -61t-15.5 -93.5t-18.5 -97.5t-16 -65q-8 -35 -26.5 -72t-45.5 -62.5t-58.5 -30.5t-70.5 19q-33 21 -54.5 67z" />
<glyph unicode="q" horiz-adv-x="563" d="M615.5 -1036.5q-31.5 71.5 -51 142.5t-28 133.5t-1.5 105.5q-14 100 -77 156.5t-145 84t-174 35.5t-168 12q-8 12 2.5 35t26.5 23q51 6 107.5 4t111.5 -10.5t109.5 -22.5t103.5 -29q6 55 1 123t-15 134.5t-22.5 129t-22.5 103.5q-29 -20 -47.5 -47t-36 -54.5t-38 -54 t-48.5 -45.5q-66 -45 -105 -29.5t-53 70.5t-8 139t27.5 177.5t56.5 185.5t76 161.5t86 106.5t90 23q4 -4 4 -15.5t-4 -13.5q-8 -16 -40 -73.5t-72 -138.5t-81 -172t-63.5 -168t-19.5 -131t46 -64q57 14 98.5 55t70 97t45 123t26.5 132.5t14 123.5t6 103q8 25 37 31t49 -4 v-63v-96.5t-1 -114t0 -113.5t1 -96v-64q0 -23 4.5 -65.5t10.5 -97t14 -114t17.5 -111.5t19.5 -95t20 -64q31 -57 87.5 -120.5t112.5 -128t102.5 -133t58.5 -138t-21.5 -142.5t-136.5 -145q-8 4 -19 16.5t-25.5 25t-27 26.5t-14.5 21q-45 63 -76.5 134.5zM684 -913l35 -88 q18 -45 34.5 -86t24.5 -56q25 -29 36 -10.5t9 66t-16 114t-42 135t-69 133t-92 107.5v-13.5v-13.5q6 -20 14 -57l19 -74q6 -35 13 -64.5t12 -37.5q6 -16 22 -55z" />
<glyph unicode="r" horiz-adv-x="700" d="M120.5 -175q-18.5 -1 -31.5 37t-20.5 106.5t-9.5 151.5t-1 174t5.5 175t11.5 154.5t14 111.5t15.5 45t16.5 -47q53 41 114.5 77t127 60.5t133 30.5t129.5 -12q8 -23 2 -50.5t-31 -35.5q-27 4 -70 4t-91 -6t-97 -20.5t-87 -39t-62.5 -58.5t-24.5 -83v-719 q-25 -55 -43.5 -56z" />
<glyph unicode="s" horiz-adv-x="618" d="M70.5 -24.5q-19.5 53.5 -20.5 100.5t12.5 73.5t37.5 2.5q-4 -90 33 -136.5t88 -58.5t110.5 6.5t101.5 57t58.5 95t-18.5 120.5q-41 51 -95 96t-109.5 90t-106.5 92t-90 100q-4 4 -4 13.5t4 13.5q12 14 32.5 46t49 73t60.5 84t60.5 83t50 71.5t33.5 45.5q23 31 47.5 35 t67.5 -6q-2 -8 -12 -29.5t-17 -27.5q-12 -20 -49 -69.5t-79 -106t-77.5 -104.5t-50.5 -66q-14 -18 9.5 -45t65.5 -61t97.5 -73.5t104.5 -87t83 -100.5t37 -113.5t-35 -127t-134 -140.5q-29 -25 -65 -41t-73.5 -21t-76.5 1t-72 30q-39 31 -58.5 84.5z" />
<glyph unicode="t" horiz-adv-x="739" d="M417.5 283.5q-20.5 76.5 -28.5 158.5t-7 162t5 146q-25 6 -53.5 -4.5t-62 -25.5t-68.5 -33.5t-66 -27t-55.5 -3t-38.5 35.5q-14 27 3 43.5t51 25.5t79 14t85 11.5t67.5 17.5t29.5 32l58 630q2 16 16 24.5t29.5 8.5t29 -7t13.5 -26v-544q23 -6 44 1t42.5 15t43 12t42.5 0 q12 -18 -2.5 -34.5t-26.5 -22.5l-29 -19q-20 -12 -42.5 -26t-44 -25.5t-27.5 -15.5q-2 -23 -3 -80t-1 -121.5t1 -122t3 -82.5q4 -78 27.5 -142t64.5 -101t96.5 -37t128.5 53q12 -37 -2 -67.5t-42.5 -48t-70.5 -22.5t-84 5t-82 35.5t-67 68.5q-35 62 -55.5 138.5z" />
<glyph unicode="u" horiz-adv-x="745" d="M79 -27.5q-5 17.5 -9 36t-8.5 34.5t-4.5 23v634q0 14 12.5 21.5t27 8.5t28.5 0t18 -3q-2 -23 -2 -67t-1 -101t0 -119.5t1 -120.5v-102q0 -45 2 -65q4 -94 27 -130t54.5 -34t67.5 35.5t66.5 82t52 98.5t21.5 91v432h115q-2 -39 -7 -100.5t-6.5 -133t2 -145.5t15.5 -139.5 t35.5 -113.5t61.5 -68.5t90.5 -7t125.5 74.5q14 -43 -12.5 -83t-69.5 -69.5t-93 -44t-85 -6.5q-4 2 -14 13.5t-15 17.5l-22 44l-34.5 69t-34 69.5t-23.5 47.5q-8 -18 -31.5 -56.5t-56.5 -81.5t-70 -79.5t-75 -52t-74.5 -3.5t-67.5 72q-2 4 -7 21.5z" />
<glyph unicode="v" horiz-adv-x="706" d="M106 485l-32 70q-18 37 -36 68.5t-26 46.5q6 18 22.5 26.5t35 7t36 -9.5t23.5 -24l229 -518l203 718l8 13q10 12 22.5 24.5t28 20.5t27.5 2q4 -8 4 -30.5t-4 -29.5q-4 -12 -21.5 -62t-37 -109.5t-35.5 -109.5t-21 -63q-4 -14 -11 -56t-15 -98.5t-18.5 -120t-19.5 -119.5 t-15.5 -98t-8.5 -54q-4 -20 -11 -43t-20.5 -42.5t-34 -28.5t-48.5 -3q-6 23 -22.5 67.5t-36 101t-41 120t-41 120t-35 101.5t-25.5 65q-7 14 -23 47z" />
<glyph unicode="w" horiz-adv-x="1021" d="M545.5 60.5q-19.5 70.5 -33.5 145.5t-23 138q-12 63 -16 92q-2 -29 -18 -86q-16 -59 -41 -125.5t-57.5 -134t-73.5 -116t-87 -67t-96 14.5q-4 0 -9 11.5t-9 24.5t-7 27.5t-3 22.5v692q-25 47 -28 77t6 46.5t26.5 21.5t36 -1t32 -21.5t13.5 -38.5v-690l30 -86 q80 57 130.5 138t77 174.5t35.5 190.5t13 189q8 0 22.5 2.5t28 0t23.5 -10.5t14 -22l115 -604l58 -115q39 25 59 91.5t28.5 157.5t9.5 197.5t0 213t0 202.5t15 166t42 103.5t75 17.5q35 -8 33 -36t-18.5 -56.5t-35 -52t-20.5 -25.5v-778q0 -33 -14.5 -77t-37 -84t-53 -74 t-64.5 -45t-68.5 5.5t-67.5 73.5q-23 39 -42.5 109.5z" />
<glyph unicode="x" horiz-adv-x="978" d="M45 14.5q6 59.5 26.5 116.5t52.5 114.5t57.5 113t41 111.5t8.5 114q-2 12 -7 45t-11 77t-12 94t-12.5 94t-10.5 78t-4 44q-8 66 9.5 114t41 71.5t44 21.5t20.5 -33q-2 -23 -2 -76v-113.5v-113.5t2 -74q0 -8 3 -24.5t8 -35t9 -33.5t8 -20q96 156 198.5 236t191 98.5 t155 -16.5t91 -109.5t1 -181t-115.5 -229.5q-61 -80 -124 -113t-124.5 -38t-116.5 6.5t-99 21.5t-74 9t-40 -32q-8 -23 -22.5 -66.5t-27.5 -89.5t-24.5 -84t-11.5 -46q-6 -18 -3 -54.5t-3 -68t-23.5 -56t-58.5 -24.5q-2 0 -13.5 11t-15.5 17q-18 64 -12 123.5zM561 406.5 q53 5.5 101 31.5q78 47 127 111.5t68.5 131.5t16 127t-28 102t-70.5 57.5t-106.5 -10t-136 -101.5t-159.5 -215q-14 -39 -13.5 -66.5t15 -51t38 -44t48.5 -41.5q47 -37 100 -31.5z" />
<glyph unicode="y" horiz-adv-x="1265" d="M650.5 -552q-15.5 46 -14.5 102.5t16.5 119t35 120.5t41 108.5t37.5 81.5q4 14 20.5 45.5t34.5 72.5l82 166q20 39 36.5 71t27.5 46q6 78 -12.5 123t-53.5 61.5t-81 8t-93 -35t-91 -66.5t-73 -91q-10 -8 -34.5 -39t-59.5 -75t-78 -95t-87 -100t-86 -91t-77 -64.5 t-60.5 -25t-35.5 30.5q-2 0 -3 8.5t-1 17.5t1 17t3 15q2 16 13.5 69t25.5 125t30.5 153t30 152.5t25.5 123.5t18 69q2 14 20.5 38.5t41 41t46 15.5t36.5 -38q-16 -25 -38 -77t-42.5 -118.5t-41 -140.5t-34.5 -142.5t-18 -125.5t0 -88q72 94 157.5 199.5t176 200.5t178.5 165 t163.5 89.5t133 -22.5t86.5 -171l200 172h86q16 -47 0 -63.5t-45.5 -26t-65.5 -19.5t-59.5 -43t-28.5 -98.5t27 -183.5q23 -82 32 -170.5t-3 -174.5q-6 -37 -25.5 -102t-53.5 -137t-79 -140.5t-97 -112.5t-111.5 -55.5t-122.5 31.5q-41 27 -56.5 73zM778.5 -561.5 q30.5 -16.5 70.5 3t84 72t82 123t63.5 157.5t31.5 179.5t-13.5 182.5t-74.5 168q-37 -27 -76 -85.5t-72.5 -133t-63.5 -158.5t-49.5 -164t-26.5 -149.5t1 -114.5q13 -64 43.5 -80.5z" />
<glyph unicode="z" horiz-adv-x="1060" d="M79 119q-5 76 22.5 145.5t78.5 131t99.5 109.5t86 80.5t40.5 47.5q-18 -20 -51 -35.5t-73 -22t-81 1t-71 33t-47 69.5t-9 116q25 27 42 23.5t32.5 -22t30 -48t31.5 -55t39.5 -42t53.5 -10.5q43 10 89 46t96.5 73t106.5 59.5t116 5.5q43 -10 40 -36.5t-32 -61.5t-76 -70.5 t-92 -65.5t-81 -51.5t-42 -23.5q-39 -29 -79 -60.5t-73.5 -68.5t-57 -78t-30.5 -86q-14 -92 2.5 -150.5t57.5 -89t100.5 -38.5t128 0t140 29.5t138 47t122 54t90.5 51.5q20 0 39.5 -10.5t28.5 -25.5t2 -32.5t-38 -29.5q-51 -20 -120.5 -50t-146.5 -59t-160 -47t-160.5 -18 t-147 24.5t-121.5 87.5q-59 76 -64 152z" />
<glyph unicode="{" horiz-adv-x="950" d="M147.5 -349.5q-32.5 23.5 -53 54.5t-22.5 65.5t26 75.5q12 16 41 52t63 81.5t71.5 95.5t71.5 95t60.5 81t36.5 54q63 92 66.5 146.5t-26 86t-82 51t-98.5 37t-74.5 42t-14.5 69.5q39 10 88 18.5t98.5 23t91 39t68.5 65.5q4 2 4 14t-4 16l-287 201q-18 12 -25 43t-9 62.5 t0 59.5t4 36q31 33 72.5 76t91 87t105.5 84t113.5 67.5t114 36.5t109.5 -7q10 -20 -29 -45t-101.5 -55.5t-136 -68.5t-131 -82t-87 -96t-7.5 -114q14 -33 46 -63.5t72 -58t82 -56.5t71.5 -57.5t45 -57t1 -58.5t-61.5 -64.5t-141 -71.5q82 -63 105.5 -134t9 -144 t-55.5 -145.5t-93 -140t-105 -130t-90 -113.5q-47 -63 -45 -107.5t36.5 -70t96 -37t135.5 -12.5t151.5 3.5t147.5 9.5t122 10t77 3q23 -33 4 -56.5t-65 -35.5t-112.5 -18.5t-140.5 -7.5t-147.5 2t-135 9.5t-102.5 10.5t-51 8q-33 12 -65.5 35.5z" />
<glyph unicode="|" horiz-adv-x="303" d="M161.5 1161q16.5 6 34 -9t30 -49t5.5 -87q-4 -23 -12 -89.5t-20.5 -154.5t-26.5 -188.5t-24.5 -189.5t-19.5 -155.5t-11 -86.5q-2 -14 -3 -47t-1 -69t1 -69t3 -45q-4 -6 -13.5 -18.5t-21.5 -22.5t-26.5 -17t-26.5 -1q-6 4 -17.5 15t-11.5 13l143 1242q2 22 18.5 28z" />
<glyph unicode="}" horiz-adv-x="876" d="M143.5 -443.5q22.5 21.5 70.5 39t111.5 32t130 34t124 46t95.5 66.5t45 95t-31 134t-129 181.5t-255 237.5q-20 55 -18 103t23.5 90t58.5 80t84 73l-289 59q-29 6 -43.5 32t-15.5 58.5t8.5 63.5t23.5 45q236 160 352.5 266.5t107.5 178t-150.5 115.5t-426.5 75 q-10 18 29 31.5t103.5 19.5t146.5 2t160 -22.5t139 -51t90 -85t10.5 -126t-102.5 -169.5q-14 -12 -41 -32t-60.5 -45.5t-70.5 -55t-71 -54t-61.5 -45t-39.5 -29.5q-39 -31 -30 -52t59 -34q127 -35 255 -35.5t263 5.5q16 -33 -1.5 -57.5t-55 -48t-88 -44t-99.5 -42t-94 -45 t-66.5 -52.5t-18.5 -63.5t46 -77.5l377 -375q49 -49 51 -107.5t-31 -118t-92 -117t-130 -105.5t-146.5 -85t-140 -56t-111.5 -17t-62 30q-16 33 6.5 54.5z" />
<glyph unicode="~" horiz-adv-x="1179" d="M244 1184q49 35 101 39t106.5 -15.5t109.5 -41t108.5 -35t104.5 3.5q20 14 54 46.5t71 67.5t71 62.5t53 32t18 -26.5t-33 -109q-47 -51 -98.5 -90t-105.5 -65.5t-108.5 -35.5t-107.5 5q-37 10 -86 35.5t-99.5 42t-99.5 3.5t-84 -81l-67 39q43 88 92 123z" />
<glyph unicode="&#xa2;" horiz-adv-x="862" d="M451.5 986.5q17.5 17.5 36 17.5t30.5 -23t6 -78q-2 -20 -10 -78.5t-20 -136.5q-4 -33 -9 -70q16 -23 29 -45q23 -33 36 -59.5t15 -38.5q4 -23 5 -44t-7 -37.5t-24.5 -25t-49.5 2.5q0 12 -30 49l-2 4q-2 -31 -6 -59q-12 -78 -19.5 -135.5t-9.5 -77.5q0 -10 -3 -43t-9 -78 q-2 -25 -4 -58q70 25 161 84q117 80 271 238v-59q0 -4 -20.5 -29t-49.5 -56.5t-57.5 -63.5t-48.5 -50q-55 -51 -117 -95t-129 -65q-10 -4 -21 -6q-2 -14 -2 -31q-4 -47 -6 -79.5t0 -41.5l-12 -16q-8 -12 -20.5 -23.5t-27 -17.5t-26.5 -2q-8 4 -18.5 15.5t-10.5 15.5l21 170 q-6 0 -12 2q-68 8 -138 59q-59 47 -86.5 112.5t-29.5 141.5t16 158t49 157.5t71 142t80 112t74.5 64.5t55.5 3q4 -12 16 -39q8 -12 17 -29l26 199q2 25 19.5 42.5zM301 637q-61 -33 -102 -100.5t-62.5 -148.5t-19.5 -163t29.5 -145.5t80.5 -97.5q33 -20 78 -25l74 571 q-23 33 -45 60q-29 39 -33 49z" />
<glyph unicode="&#xa3;" horiz-adv-x="1277" d="M21.5 573.5q5.5 10.5 15.5 18.5t22.5 11t22.5 5q20 6 68 13q27 6 59 14q4 115 10 205q12 152 41 234.5t74 116.5t106.5 25.5t141.5 -34.5q96 -35 121.5 -59.5t5 -38t-73.5 -18.5t-109.5 -6t-105.5 2t-62 9v-412q8 2 23 7q68 12 128 23t107.5 19.5t71.5 14.5q37 6 47 -7.5 t4 -33.5t-21.5 -42t-29.5 -32q-51 8 -115.5 0t-134.5 -24l-90 -21v-440q12 27 61.5 21.5t118 -23t148.5 -42t162 -37.5t161.5 -8t143.5 42q61 37 83.5 38t15.5 -20.5t-39 -56.5t-81 -70t-110.5 -61.5t-124.5 -30.5q-16 -2 -52 12.5t-82 35t-96.5 45t-95.5 47t-81 37 t-52 14.5q-20 -14 -40.5 -50t-44.5 -69t-52.5 -53.5t-65.5 -2.5q-14 330 -16 562v79q-18 -4 -35 -6q-57 -8 -98 -4t-51 29q-9 12 -3.5 22.5z" />
<glyph unicode="&#xa4;" horiz-adv-x="1103" d="M283 428q4 31 13 64.5t26 56.5l-193 274q10 57 35.5 79t50.5 21t43 -20.5t14 -46.5q-8 -37 4.5 -65.5t33 -57t42 -59.5t31.5 -72q59 70 107.5 108t89.5 54t76.5 15t74.5 -9q6 0 23.5 21.5t41 52t46 63.5t37.5 60q16 25 43.5 37t47 4.5t30 -33t-4.5 -76.5 q-6 -16 -34.5 -32.5t-62.5 -36t-59.5 -43t-21.5 -54.5q2 -27 19.5 -69.5t27.5 -92t-1 -102.5t-68 -100q-4 -4 18.5 -21.5t53 -42t63.5 -53.5t51 -55q51 -76 59.5 -106t-11 -27.5t-56.5 30t-78 66.5l-34.5 34.5t-58.5 54t-58.5 45t-34.5 7.5q-53 -68 -91 -96.5t-68 -33.5 t-53.5 9.5t-43.5 34.5l-41 43q-20 23 -45 33q-18 10 -41 -9.5t-49.5 -53t-52 -74.5t-47 -77t-39 -60.5t-27.5 -22.5q-4 0 -15.5 8t-25 17.5t-23.5 18.5t-10 13l252 309q-4 0 -8 19q-2 18 2 49zM398.5 475q9.5 -43 36 -85t60 -69.5t56.5 -19.5q86 27 137 84t67.5 117.5t1 113 t-58.5 69.5t-114.5 -11.5t-163.5 -128.5q-31 -27 -21.5 -70z" />
<glyph unicode="&#xa5;" horiz-adv-x="708" d="M44 320.5q-3 15.5 5 35t20.5 39t14.5 19.5q96 20 155.5 36.5t100.5 20.5v59q0 20 -1 34t-2 20t-5 16q-4 6 -24.5 39t-48.5 76t-61.5 92t-62.5 91t-49 74t-27 40q6 18 22.5 26.5t35 7t36 -9.5t23.5 -24l205 -264l180 368l8 10q10 12 22.5 25.5t28 22t27.5 -2.5 q4 -6 4 -28.5t-4 -26.5q-4 -10 -19.5 -51t-38 -96.5t-49 -120t-48 -120.5t-38 -97t-18.5 -49q-2 -14 -3 -20.5t-3 -15.5t-3 -23.5t1 -41.5q20 0 40.5 -3t51.5 -5t70 -4t92 -6q6 -23 1 -50.5t-30 -35.5q-82 8 -133 13t-88 1v-49q0 -8 1 -19.5t1 -33.5q12 2 26.5 4t31.5 4 l213 16q12 -18 10 -32.5t-12.5 -25.5t-23.5 -17.5t-28 -6.5l-213 -41q4 -78 8.5 -139t6.5 -105t2 -64.5t0 -10.5q-25 -6 -35 -12t-16.5 -11.5t-17.5 -5.5t-40 11q-6 27 -9 106.5t-3 210.5l-168 -33q-27 -4 -50.5 -2t-35.5 31q-6 8 -1 21.5t29.5 28.5t78 31.5t147.5 31.5 l6 98q-20 -6 -44 -13.5t-53.5 -15.5t-69.5 -16l-95 -19q-31 -8 -34 7.5z" />
<glyph unicode="&#xa6;" horiz-adv-x="178" d="M29 1049q-2 16 13 21t34.5 4t35 -5t17.5 -4v-496l-100 -6v486zM129 -104l-84 -13q-4 6 -6 42t-5 110t-4 187.5t1 273.5l98 4v-604z" />
<glyph unicode="&#xa8;" horiz-adv-x="716" d="M230.5 825.5q15.5 28.5 41 48t55 18.5t46.5 -42q16 -47 1.5 -79t-42 -44t-58 -1t-45.5 52q-14 19 1.5 47.5zM505.5 864.5q16.5 30.5 42 46t55.5 4t42 -64.5q10 -41 -4 -64.5t-38.5 -30.5t-52.5 4t-44 44q-17 31 -0.5 61.5z" />
<glyph unicode="&#xa9;" horiz-adv-x="1132" d="M156.5 -2.5q-17.5 22.5 -34 46.5t-26.5 50.5t-16 44.5q-14 72 -7 183.5t36.5 237.5t83 252t129 224.5t174 153.5t217.5 41q90 -8 147.5 -57.5t93 -129t53 -190.5t27.5 -242q-18 -98 -63 -198.5t-109.5 -189.5t-144.5 -160.5t-167 -110.5t-178 -39t-177 51 q-21 10 -38.5 32.5zM285.5 42q29.5 -17 59.5 -25.5t59.5 -7.5t64.5 18q102 51 178 114.5t129 137.5q-47 -31 -95 -52.5t-98.5 -26.5t-101.5 8t-102 52q-82 61 -106.5 139t-11.5 158t55 153.5t92.5 125t99.5 74t80 1.5q2 -18 17.5 -54t32.5 -72.5t31.5 -72.5t18.5 -55 q2 -20 1 -44.5t-9 -43t-27.5 -28t-52.5 1.5q0 10 -8 38.5t-17.5 60.5t-18.5 61.5t-11 41.5l-29 27q-47 4 -84 -28.5t-57.5 -87t-26.5 -116t11.5 -114.5t55.5 -88t102.5 -34t156.5 50t217 164q25 96 21.5 189.5t-28 171t-66.5 137t-95 88.5t-115.5 20.5t-124.5 -63.5 q-33 -31 -68.5 -71t-65.5 -86t-55.5 -94t-41.5 -95q-8 -25 -25.5 -75t-35 -110.5t-29.5 -128t-13.5 -129t15 -112.5t59.5 -78q33 -23 62.5 -40z" />
<glyph unicode="&#xac;" horiz-adv-x="770" d="M12 348q4 10 14.5 17.5t22.5 10.5t23 5l65 13t101.5 21.5t118 25t117.5 22.5t101.5 18t69.5 15q39 6 60.5 -8.5t32 -56.5t8 -114.5t-10.5 -181.5q-6 0 -21.5 -6t-32.5 -11t-30.5 -9.5t-13.5 2.5q-2 59 -1 109t-1 87t-8 55.5t-23 16.5q-49 -8 -109.5 -20.5t-124 -24.5 t-123 -21.5t-108.5 -13.5t-82.5 1t-44.5 24q-4 14 0 24z" />
<glyph unicode="&#xad;" d="M12 348q4 10 14.5 17.5t22.5 10.5t23 5q20 4 68 13t106.5 21.5t125 25t127 23.5t108.5 19.5t69 14.5q39 6 49 -7.5t4 -35t-21.5 -43t-31.5 -31.5q-47 6 -112.5 -2t-134.5 -22.5t-138.5 -31t-127 -24.5t-98 -4t-53.5 27q-4 14 0 24z" />
<glyph unicode="&#xaf;" d="M24.5 905q4.5 10 14.5 18.5t22.5 10.5t22.5 4q23 6 70 15.5t107.5 20.5t126 23.5t124.5 23.5t107.5 19.5t70.5 14.5q39 6 48.5 -7.5t4 -35t-21.5 -42t-31 -32.5q-49 8 -114.5 0t-134 -23.5t-138.5 -32t-126 -24.5t-97 -4t-53 29q-7 12 -2.5 22z" />
<glyph unicode="&#xb0;" horiz-adv-x="391" d="M18.5 563.5q-14.5 18.5 -22.5 30.5q-20 31 -15 77t30.5 93t65.5 86t87 56.5t97 5t97 -69.5q16 -51 0 -109.5t-59 -104.5t-105.5 -74t-138.5 -17q-22 8 -36.5 26.5zM79 760q-32 -49 -35 -92t28.5 -64.5t105.5 -1.5q61 39 87 78t29 71.5t-11.5 59.5t-37 41t-47 12 t-38.5 -24q-49 -31 -81 -80z" />
<glyph unicode="&#xb1;" horiz-adv-x="1384" d="M93 -24.5q5 10.5 15.5 17.5t21.5 10t24 5q10 2 47 8.5t88 12.5l121 14q66 8 139 16q0 20 -1 46t-1 50.5t1 46t3 31.5q4 74 19.5 156t9.5 160q-80 -6 -155 -35t-144.5 -56.5t-133 -47t-116.5 -7.5q-10 18 2 39t33.5 36.5t46 27.5t34.5 14q16 6 50 15.5t77 20.5t89.5 23.5 t89.5 24.5t76.5 20.5t50.5 12.5q2 20 4 62t7 88.5t16 90.5t30 72q2 8 13.5 19.5t15.5 11.5q6 0 16 -4t19.5 -7t15.5 -9.5t6 -10.5v-284q16 -2 73.5 5t132.5 16t155.5 16.5t145 4.5t101.5 -18.5t25 -52.5q0 -4 -10.5 -15.5t-16.5 -15.5q-14 0 -52 1t-80 1t-78 -1t-50 -1 l-97.5 -5t-113.5 -8t-94 -8t-41 -5q-8 -12 -18.5 -45t-19.5 -80t-17.5 -101.5t-14.5 -109t-11 -100.5t-9 -74q111 14 223.5 26.5t209.5 23.5t164.5 20.5t88.5 13.5q37 4 46 -8.5t4 -35t-20.5 -43t-29.5 -30.5q-37 4 -108.5 -1t-160.5 -15.5t-192.5 -24.5t-207 -28.5 t-199 -25t-172 -15.5t-126 1t-59.5 25q-6 12 -1 22.5z" />
<glyph unicode="&#xd7;" horiz-adv-x="978" d="M740.5 171.5q-60.5 -21.5 -117 -24t-106.5 10t-91 21.5t-68.5 7t-33.5 -30q-68 -68 -98.5 -107t-39.5 -59q-8 -16 -10 -19q-4 2 -37 2q-2 0 -16 11.5t-12 19.5q12 66 36.5 104.5t51 63.5t53.5 41t42 35.5t17 51.5t-20 85q-2 16 -20.5 49t-40 67t-39 66.5t-21.5 48.5 l61 107q12 -35 27.5 -58.5t35 -44t42 -42t47.5 -52.5q55 92 113.5 151.5t116 97.5t110.5 53.5t100 15.5l-30 -68q-66 -4 -157 -79.5t-202 -252.5q-31 -76 -3 -129t91 -73q49 -16 102.5 -14.5t98.5 14.5q33 8 56.5 32.5t41.5 47.5l35 -70q-55 -59 -115.5 -80.5z" />
<glyph unicode="&#xf7;" horiz-adv-x="804" d="M45 514q4 10 14.5 17.5t22.5 10.5t23 5q20 4 68 13t106.5 21.5t125 25t127 23.5t108.5 19.5t69 14.5q39 6 49 -7.5t4 -35t-21.5 -43t-31.5 -31.5q-47 6 -112.5 -2t-134.5 -22.5t-138.5 -31t-127 -24.5t-98 -4t-53.5 27q-4 14 0 24zM339 190.5q11 40.5 31.5 75.5t49 59.5 t56.5 33t51.5 -2t35.5 -47.5q10 -27 -2 -61.5t-36.5 -64t-55.5 -55.5t-59.5 -39t-51 -10t-24.5 27q-6 44 5 84.5zM201.5 792.5q-5.5 26.5 12 49t51.5 40t74 29t76.5 16.5t60.5 -2t27 -23.5t-24 -43.5l-145 -145q0 -2 -11.5 -2t-17.5 2q-6 4 -28.5 13t-28.5 15 q-41 25 -46.5 51.5z" />
<glyph unicode="&#x2c6;" horiz-adv-x="1415" d="M1113 827.5q-26 12.5 -51.5 25.5t-54 29.5t-59 50.5t-66.5 85t-77 135l-336 -383q-23 -4 -35 5t-15 27.5t-1 36t6 27.5q2 4 0 4t4 8.5t24.5 31t64.5 69.5t121 127t193 205q4 6 14.5 3t12.5 -9q41 -57 60.5 -101.5t33 -77t24.5 -60.5t37.5 -53.5t73 -53t125.5 -60.5 l-47 -108q-26 24 -52 36.5z" />
<glyph unicode="&#x2dc;" horiz-adv-x="1179" d="M244 1184q49 35 101 39t106.5 -15.5t109.5 -41t108.5 -35t104.5 3.5q20 14 54 46.5t71 67.5t71 62.5t53 32t18 -26.5t-33 -109q-47 -51 -98.5 -90t-105.5 -65.5t-108.5 -35.5t-107.5 5q-37 10 -86 35.5t-99.5 42t-99.5 3.5t-84 -81l-67 39q43 88 92 123z" />
<glyph unicode="&#x2000;" horiz-adv-x="880" />
<glyph unicode="&#x2001;" horiz-adv-x="1760" />
<glyph unicode="&#x2002;" horiz-adv-x="880" />
<glyph unicode="&#x2003;" horiz-adv-x="1760" />
<glyph unicode="&#x2004;" horiz-adv-x="586" />
<glyph unicode="&#x2005;" horiz-adv-x="440" />
<glyph unicode="&#x2006;" horiz-adv-x="293" />
<glyph unicode="&#x2007;" horiz-adv-x="293" />
<glyph unicode="&#x2008;" horiz-adv-x="220" />
<glyph unicode="&#x2009;" horiz-adv-x="352" />
<glyph unicode="&#x200a;" horiz-adv-x="97" />
<glyph unicode="&#x2010;" d="M12 348q4 10 14.5 17.5t22.5 10.5t23 5q20 4 68 13t106.5 21.5t125 25t127 23.5t108.5 19.5t69 14.5q39 6 49 -7.5t4 -35t-21.5 -43t-31.5 -31.5q-47 6 -112.5 -2t-134.5 -22.5t-138.5 -31t-127 -24.5t-98 -4t-53.5 27q-4 14 0 24z" />
<glyph unicode="&#x2011;" d="M12 348q4 10 14.5 17.5t22.5 10.5t23 5q20 4 68 13t106.5 21.5t125 25t127 23.5t108.5 19.5t69 14.5q39 6 49 -7.5t4 -35t-21.5 -43t-31.5 -31.5q-47 6 -112.5 -2t-134.5 -22.5t-138.5 -31t-127 -24.5t-98 -4t-53.5 27q-4 14 0 24z" />
<glyph unicode="&#x2012;" d="M12 348q4 10 14.5 17.5t22.5 10.5t23 5q20 4 68 13t106.5 21.5t125 25t127 23.5t108.5 19.5t69 14.5q39 6 49 -7.5t4 -35t-21.5 -43t-31.5 -31.5q-47 6 -112.5 -2t-134.5 -22.5t-138.5 -31t-127 -24.5t-98 -4t-53.5 27q-4 14 0 24z" />
<glyph unicode="&#x2013;" horiz-adv-x="686" d="M12 348q4 10 14.5 17.5t22.5 10.5t23 5q33 6 105.5 8t151.5 1t151.5 -1t107.5 8q37 4 47 -8t5 -33.5t-21.5 -44t-30.5 -30.5q-49 6 -107.5 6t-117 -4t-117 -7.5t-106.5 0t-81.5 14.5t-46.5 34q-4 14 0 24z" />
<glyph unicode="&#x2014;" horiz-adv-x="980" d="M12 348q4 10 14.5 17.5t22.5 10.5t23 5q20 4 81.5 9t141.5 8t170 7.5t169 7.5t141.5 6t82.5 9q39 6 49.5 -7t4 -34.5t-22 -43t-31.5 -32.5q-47 8 -125 4t-169 -10t-183 -12t-170 -7t-132 7t-67 31q-4 14 0 24z" />
<glyph unicode="&#x2018;" horiz-adv-x="260" d="M55 1180.5q-8 56.5 -11 126t0 142.5t17.5 129t46 87t80.5 14q0 -10 1 -35.5t1 -53t-1 -52.5t-1 -35q-4 -27 -9 -67.5t-12 -84.5t-12 -88t-10.5 -79t-9.5 -58.5t-6 -25.5l-29 -27l-28 27q-9 24 -17 80.5z" />
<glyph unicode="&#x2019;" horiz-adv-x="260" d="M55 1180.5q-8 56.5 -11 126t0 142.5t17.5 129t46 87t80.5 14q0 -10 1 -35.5t1 -53t-1 -52.5t-1 -35q-4 -27 -9 -67.5t-12 -84.5t-12 -88t-10.5 -79t-9.5 -58.5t-6 -25.5l-29 -27l-28 27q-9 24 -17 80.5z" />
<glyph unicode="&#x201a;" horiz-adv-x="260" d="M55 -294q-8 56 -11 126t0 142.5t17.5 129t46 87t80.5 14.5q0 -10 1 -36t1 -53.5t-1 -52t-1 -34.5q-4 -27 -9 -68t-12 -85t-12 -88t-10.5 -79t-9.5 -58.5t-6 -25.5l-29 -26l-28 26q-9 25 -17 81z" />
<glyph unicode="&#x201c;" horiz-adv-x="518" d="M73 852q-7 47 -10.5 105.5t0 119t12.5 110.5t25.5 81.5t42.5 31.5q33 0 48.5 -17t18.5 -43t-1 -59.5t-11.5 -66.5t-15.5 -59.5t-8 -40.5q-2 -14 -7 -50t-9 -78t-8.5 -79t-6.5 -51q-16 -8 -34.5 2t-22.5 26q-6 21 -13 68zM354 915.5q-6 55.5 -9 112.5t-3 113.5t2 103.5 q8 18 24.5 26.5t35 8.5t35 -8t22.5 -27q0 -12 3 -48t5 -86t0 -105.5t-9 -102.5t-20.5 -81t-36.5 -38q-6 0 -17 11.5t-13 17.5q-13 47 -19 102.5z" />
<glyph unicode="&#x201d;" horiz-adv-x="518" d="M73 852q-7 47 -10.5 105.5t0 119t12.5 110.5t25.5 81.5t42.5 31.5q33 0 48.5 -17t18.5 -43t-1 -59.5t-11.5 -66.5t-15.5 -59.5t-8 -40.5q-2 -14 -7 -50t-9 -78t-8.5 -79t-6.5 -51q-16 -8 -34.5 2t-22.5 26q-6 21 -13 68zM354 915.5q-6 55.5 -9 112.5t-3 113.5t2 103.5 q8 18 24.5 26.5t35 8.5t35 -8t22.5 -27q0 -12 3 -48t5 -86t0 -105.5t-9 -102.5t-20.5 -81t-36.5 -38q-6 0 -17 11.5t-13 17.5q-13 47 -19 102.5z" />
<glyph unicode="&#x201e;" horiz-adv-x="518" d="M73 -254q-7 47 -10.5 105.5t0 119t12.5 110.5t25.5 82t42.5 32q33 0 48.5 -17.5t18.5 -43t-1 -59.5t-11.5 -67t-14.5 -59.5t-9 -40.5t-7 -50t-9 -78t-8.5 -79t-6.5 -51q-16 -10 -33.5 1t-23.5 25q-6 23 -13 70zM354 -190.5q-6 55.5 -9 113t-3 113.5t2 103q8 18 24.5 26.5 t35 8.5t35 -8t22.5 -27q0 -12 3 -48t5 -86t0 -106.5t-9 -102.5t-20.5 -79.5t-36.5 -40.5q-6 2 -17 13.5t-13 17.5q-13 47 -19 102.5z" />
<glyph unicode="&#x2022;" horiz-adv-x="516" d="M143 669.5q4 30.5 22.5 55.5t46.5 43t58.5 25.5t58 -1t48.5 -32.5q25 -37 27 -73t-13.5 -64.5t-42 -49t-60.5 -24.5t-68 10t-62 55q-19 25 -15 55.5z" />
<glyph unicode="&#x2026;" horiz-adv-x="1245" d="M117 -47q6 33 26.5 60.5t49 49t59.5 23.5t59.5 -14.5t44.5 -63.5q12 -29 3 -56.5t-31.5 -48t-51 -33.5t-57.5 -17.5t-54.5 5t-39.5 33.5q-14 29 -8 62zM532.5 -47q6.5 33 27 60.5t49 49t58 23.5t58.5 -14.5t45 -63.5q14 -29 5 -56.5t-31.5 -48t-52 -33.5t-58.5 -17.5 t-54.5 5t-37.5 33.5q-15 29 -8.5 62zM946 -47q6 33 25.5 60.5t49.5 49t60.5 23.5t59 -14.5t45.5 -63.5q16 -43 -9.5 -81t-69.5 -58.5t-89 -17t-66 39.5q-12 29 -6 62z" />
<glyph unicode="&#x202f;" horiz-adv-x="352" />
<glyph unicode="&#x205f;" horiz-adv-x="440" />
<glyph unicode="&#x20ac;" horiz-adv-x="1153" d="M54.5 335.5q21.5 16.5 53 29t64.5 16.5t43 4l49 4q4 39 10 80q8 35 15 70q-41 -12 -96 -27h-89q-2 4 -2 15.5t2 15.5t14.5 14t16.5 12q86 31 148 49q18 8 34 15q12 35 27 67q49 115 118.5 209.5t157 151.5t187.5 70.5t209 -37.5q45 -66 43 -88.5t-37 -22.5t-94.5 8 t-130 2t-143 -33.5t-134.5 -105.5q-59 -72 -100 -197q35 8 67 11q43 6 94.5 6t114 -6t152.5 -13q8 -20 3 -48.5t-30 -39.5q-86 14 -145.5 19.5t-104.5 5.5t-81.5 -4t-77.5 -15q-8 -2 -19 -6q-14 -74 -24 -168l444 41h201q10 -18 9 -33.5t-10 -26.5t-24.5 -18.5t-30.5 -7.5 h-376l-220 -41v-18q-14 -76 5.5 -139.5t60.5 -109.5t98.5 -73.5t121 -34t127 8t114.5 57.5q31 23 48 58.5t32.5 67.5t27 53.5t31.5 15.5q25 -74 11.5 -133.5t-52.5 -103.5t-101.5 -71.5t-135 -37t-150.5 -1t-149 38.5q-88 53 -133.5 144.5t-53.5 200.5q-4 31 -4 59l-131 -27 q-27 -2 -49.5 -1t-36.5 32q-10 20 11.5 36.5z" />
<glyph unicode="&#x2122;" horiz-adv-x="2580" d="M2174 -182q-40 47 -66.5 104.5t-43 118.5t-26.5 113q-4 25 -11.5 82t-16.5 127.5t-18.5 149.5t-18.5 149.5t-14 127t-7 82.5l-201 -806l-8 -19q-8 -14 -20.5 -31.5t-27 -34t-29.5 -23.5t-31.5 -5t-26.5 29l-432 862l-115 -862q-4 -25 -19.5 -30t-31 0t-28.5 21.5t-9 34.5 l90 996l-371 -134q-2 0 -3 -39.5t-1 -94t1 -114t3 -96.5q0 -14 2 -59t5 -103.5t6.5 -125t6.5 -126t5 -103.5t4 -58q0 -29 -16.5 -52.5t-36 -31.5t-39 2t-25.5 53q4 115 -1 230.5t-13 230.5t-13.5 230.5t-1.5 228.5q-18 -4 -56 -13.5t-86 -20.5t-102.5 -24.5t-102.5 -24.5 t-86 -20.5t-56 -11.5q-23 -6 -45.5 5t-40.5 24l57 57q264 25 517 101.5t491 185.5h68q20 12 43.5 14t27.5 -10l453 -1006l266 1006q2 6 18.5 26.5t37 39t38 27.5t21.5 -7l28 -115q6 -113 9.5 -262t18.5 -307t48 -310.5t99 -273.5q6 -6 17 -20.5t24.5 -27.5t26.5 -23.5 t20 -12.5q16 -8 44.5 -3t58.5 7t56.5 -3t40.5 -34q12 -25 1 -40t-35.5 -24t-57.5 -10t-66.5 1t-62.5 7t-39 11q-55 21 -95 68z" />
<glyph unicode="&#x25fc;" horiz-adv-x="1218" d="M0 1219h1219v-1219h-1219v1219z" />
</font>
</defs>
</svg>
